<?xml version="1.0" encoding="utf-8"?>
<!-- Generator: Adobe Illustrator 17.1.0, SVG Export Plug-In . SVG Version: 6.00 Build 0)  -->
<!DOCTYPE svg PUBLIC "-//W3C//DTD SVG 1.1//EN" "http://www.w3.org/Graphics/SVG/1.1/DTD/svg11.dtd">
<svg version="1.1" id="Layer_1" xmlns="http://www.w3.org/2000/svg" xmlns:xlink="http://www.w3.org/1999/xlink" x="0px" y="0px"
	 viewBox="0 -6.5 72.3 70.5" enable-background="new 0 -6.5 72.3 70.5" xml:space="preserve">
<g>
	<path fill="#CACACA" d="M37.4-3.5c9,0,16.6,3.1,22.9,9.4c3,3,5.3,6.4,6.9,10.3c1.6,3.9,2.3,8,2.3,12.3c0,4.4-0.8,8.5-2.3,12.3
		c-1.5,3.8-3.8,7.2-6.8,10.1c-3.1,3.1-6.7,5.4-10.6,7.1c-4,1.6-8.1,2.5-12.3,2.5s-8.3-0.8-12.1-2.4c-3.9-1.6-7.3-4-10.4-7
		s-5.4-6.5-7-10.4s-2.4-7.9-2.4-12.2c0-4.2,0.8-8.3,2.4-12.2s4-7.4,7.1-10.5C21.1-0.4,28.6-3.5,37.4-3.5z M37.6,2.3
		c-7.3,0-13.5,2.6-18.5,7.7c-2.5,2.6-4.4,5.4-5.8,8.6c-1.4,3.2-2,6.5-2,10c0,3.4,0.7,6.7,2,9.9c1.4,3.2,3.3,6,5.8,8.5
		c2.5,2.5,5.4,4.4,8.5,5.7c3.2,1.3,6.5,2,9.9,2c3.4,0,6.8-0.7,10-2c3.2-1.3,6.1-3.3,8.7-5.8c5-4.9,7.5-11,7.5-18.3
		c0-3.5-0.6-6.9-1.9-10.1c-1.3-3.2-3.2-6-5.7-8.5C51,4.8,44.8,2.3,37.6,2.3z M37.2,23.2l-4.3,2.2c-0.5-1-1-1.6-1.7-2
		c-0.7-0.4-1.3-0.6-1.9-0.6c-2.9,0-4.3,1.9-4.3,5.7c0,1.7,0.4,3.1,1.1,4.1c0.7,1,1.8,1.5,3.2,1.5c1.9,0,3.2-0.9,3.9-2.7l3.9,2
		c-0.8,1.6-2,2.8-3.5,3.7c-1.5,0.9-3.1,1.3-4.9,1.3c-2.9,0-5.2-0.9-6.9-2.6c-1.8-1.8-2.6-4.2-2.6-7.3c0-3,0.9-5.5,2.7-7.3
		c1.8-1.8,4-2.7,6.7-2.7C32.6,18.6,35.4,20.1,37.2,23.2z M55.6,23.2l-4.2,2.2c-0.5-1-1-1.6-1.7-2c-0.7-0.4-1.3-0.6-1.9-0.6
		c-2.9,0-4.3,1.9-4.3,5.7c0,1.7,0.4,3.1,1.1,4.1c0.7,1,1.8,1.5,3.2,1.5c1.9,0,3.2-0.9,3.9-2.7l4,2c-0.9,1.6-2.1,2.8-3.5,3.7
		c-1.5,0.9-3.1,1.3-4.9,1.3c-2.9,0-5.2-0.9-6.9-2.6c-1.7-1.8-2.6-4.2-2.6-7.3c0-3,0.9-5.5,2.7-7.3c1.8-1.8,4-2.7,6.7-2.7
		C51.1,18.6,53.9,20.1,55.6,23.2z"/>
</g>
</svg>
