<?xml version="1.0" encoding="utf-8"?>
<!-- Generator: Adobe Illustrator 17.1.0, SVG Export Plug-In . SVG Version: 6.00 Build 0)  -->
<!DOCTYPE svg PUBLIC "-//W3C//DTD SVG 1.1//EN" "http://www.w3.org/Graphics/SVG/1.1/DTD/svg11.dtd">
<svg version="1.1"
	 id="svg3137" inkscape:version="0.48.2 r9819" sodipodi:docname="Oer_logo-green.png" xmlns:inkscape="http://www.inkscape.org/namespaces/inkscape" xmlns:rdf="http://www.w3.org/1999/02/22-rdf-syntax-ns#" xmlns:dc="http://purl.org/dc/elements/1.1/" xmlns:cc="http://creativecommons.org/ns#" xmlns:sodipodi="http://sodipodi.sourceforge.net/DTD/sodipodi-0.dtd" xmlns:svg="http://www.w3.org/2000/svg"
	 xmlns="http://www.w3.org/2000/svg" xmlns:xlink="http://www.w3.org/1999/xlink" x="0px" y="0px" viewBox="0 47 651.6 216"
	 enable-background="new 0 47 651.6 216" xml:space="preserve">
<sodipodi:namedview  inkscape:window-y="23" inkscape:window-height="1026" inkscape:window-width="1680" fit-margin-right="0" fit-margin-bottom="0" inkscape:current-layer="svg3137" inkscape:window-x="1366" inkscape:window-maximized="1" inkscape:pageopacity="0" inkscape:pageshadow="2" inkscape:zoom="0.50247117" inkscape:cy="419.93333" id="namedview3139" inkscape:cx="111.37919" gridtolerance="10" guidetolerance="10" showgrid="false" bordercolor="#666666" objecttolerance="10" fit-margin-top="0" pagecolor="#ffffff" borderopacity="1" fit-margin-left="0">
	</sodipodi:namedview>
<path id="path3999" inkscape:connector-curvature="0" fill="#CACACA" d="M18.2,248.1c-4.7-2.5-5.1-4.1-5.1-19.7
	c0-14.1,0.2-15.5,3.5-18.2c4.9-4.1,13.6-2.7,16.4,2.7c1.2,2.2,1.2,2.7,1.2,15.3c0,8.3-0.2,13.7-0.6,14.8c-0.8,2.2-2.8,4.5-5,5.4
	C26.3,249.5,20.4,249.3,18.2,248.1z M26.4,242.3c0.4-0.5,0.6-4.2,0.6-13.7c0-12.9,0-13.1-1.2-13.9c-1.6-1.1-3.3-1-4.5,0.2
	c-1,1-1,1.7-1,13.7c0,10.8,0.1,12.7,0.8,13.4C22.1,243.1,25.5,243.2,26.4,242.3z M191.1,248.4c-2-0.9-4.1-3.2-4.8-5.4
	c-0.4-1.2-0.6-7.3-0.6-18.2v-16.5l2.2,0.2l2.2,0.2l0.3,16.8c0.2,11.8,0.4,17.1,0.9,17.9c1.4,2.4,6.3,2.9,8.5,0.9
	c1.7-1.6,2-4.3,2-20.3l0-15.7l2.2,0.2l2.2,0.2v16.5v16.5l-1.3,2.6c-1.8,3.5-4.2,4.9-8.8,4.9C194.2,249.1,191.9,248.8,191.1,248.4
	L191.1,248.4z M219,248.4c-5-2.2-7.2-9.1-6.9-21.6c0.3-8.8,1.2-12.3,4.1-15.7c3.2-3.7,8.7-4.4,12.7-1.7c2,1.4,4.3,5.7,4.6,8.9
	l0.3,2.4l-2.3-0.2c-2.2-0.2-2.3-0.2-2.6-2.3c-0.8-4.5-2.5-6.4-5.8-6.4c-2.2,0-4.3,1.6-5.3,4.1c-2,4.8-1.9,20.9,0.2,25.6
	c1.6,3.5,5,4.8,8.3,3.2c1.6-0.9,3-3.6,3.4-7.2l0.3-2.5l2.2,0.2l2.2,0.2l-0.2,2.3c-0.4,4.8-2.8,9.1-5.9,10.6
	C226.2,249.3,221.2,249.4,219,248.4L219,248.4z M302.7,248.5c-5.4-2.9-8-11.3-7.3-22.9c0.7-10.9,3.8-16.5,9.8-17.6
	c4.9-0.9,9.7,2.6,11.4,8.2c1.3,4.2,1.8,11.4,1.3,17.4c-0.8,8.1-3.2,13.2-7,14.8C308.9,249.3,304.2,249.3,302.7,248.5L302.7,248.5z
	 M309.8,244.5c0.7-0.6,1.7-2,2.1-3.1c1.2-3,2-11.4,1.6-16.5c-0.7-8.9-2.8-12.9-6.9-12.9c-2.7,0-4.5,1.8-5.7,5.6
	c-1.3,4.1-1.3,18.2,0,22.4C302.6,244.9,306.6,247,309.8,244.5L309.8,244.5z M466.8,248.6c-2.9-1.2-5.3-4.6-5.9-8.6l-0.4-2.2h2.1
	c2,0,2.1,0.1,2.6,2.4c1,4,3.7,5.9,7.5,5.2c2.6-0.5,4.4-2.9,4.4-5.8c0-3.9-1.5-5.8-8.9-11.2c-4.7-3.4-6.7-6.4-7-10.4
	c-0.5-6.7,5.7-11.5,12.5-9.6c3.7,1,7,5.4,7,9.3c0,1.5-0.1,1.6-1.9,1.4c-1.8-0.1-1.9-0.3-2.6-2.6c-0.9-3.1-2.7-4.6-5.7-4.6
	c-1.8,0-2.6,0.3-3.8,1.5c-3.1,3.1-1.5,7.6,4.3,11.5c4.6,3.1,8.1,6.5,9.2,9c2.4,5.1,0.6,11.8-3.7,14.1
	C474.2,249.2,469.3,249.5,466.8,248.6L466.8,248.6z M492.3,248.1c-4.6-2.8-6.6-8.8-6.6-19.7c0-14,3.6-20.4,11.4-20.4
	c6.7,0,9.9,4.5,11.1,15.8c1.3,11.7-1.8,22.4-7.1,24.6C498.6,249.5,494.3,249.3,492.3,248.1L492.3,248.1z M500.4,244.1
	c0.8-0.8,1.8-2.7,2.3-4.2c1.8-6,1.5-19.3-0.4-24c-1-2.5-3.1-4-5.4-4c-4.1,0-6.1,4.1-6.5,14c-0.5,9.7,1,16.7,4.1,18.8
	C496.2,246,498.7,245.7,500.4,244.1L500.4,244.1z M518.8,248c-1.4-0.8-2.5-1.9-3.4-3.7l-1.3-2.6v-16.5v-16.5l2.2-0.2l2.2-0.2l0,15.7
	c0,16,0.3,18.7,2,20.3c1.3,1.2,4.4,1.6,6.3,0.8c3.2-1.3,3.3-2.1,3.5-20.3l0.2-16.4h2h2l0,16.7c0,16.9-0.2,18.3-2.1,21
	C530.1,249.2,522.8,250.3,518.8,248L518.8,248L518.8,248z M574.6,248.5c-2.2-1.2-4.4-3.9-5.4-6.4c-1.5-3.9-2.3-11-1.9-16.7
	c0.8-11.3,4-16.6,10.5-17.4c5.1-0.6,9,2.4,10.7,8.1c1.3,4.4,1.2,4.7-1.4,4.7h-2.2l-0.6-3c-0.8-4.1-2.4-5.8-5.4-5.7
	c-3.9,0-5.7,2.4-6.7,8.9c-0.7,4.4-0.3,16.1,0.6,19.3c0.8,2.9,3.5,5.5,5.7,5.4c1,0,2.3-0.3,3-0.6c1.7-0.9,3.6-4.7,3.6-7.5v-2.2h2.3
	c2.3,0,2.3,0,2.3,1.7c0,4.7-3.1,10.1-6.6,11.5C581.2,249.3,576,249.3,574.6,248.5L574.6,248.5z M623.9,248.6
	c-2.9-1.2-5.3-4.6-5.9-8.6l-0.4-2.2h2.1c2,0,2.1,0.1,2.6,2.4c1,4,3.7,5.9,7.5,5.2c2.6-0.5,4.4-2.9,4.4-5.8c0-3.9-1.5-5.8-8.9-11.2
	c-4.7-3.4-6.7-6.4-7-10.4c-0.5-6.7,5.7-11.5,12.5-9.6c3.7,1,7,5.4,7,9.3c0,1.5-0.1,1.6-1.9,1.4c-1.8-0.1-1.9-0.3-2.6-2.6
	c-0.9-3.1-2.7-4.6-5.7-4.6c-1.8,0-2.6,0.3-3.8,1.5c-3.1,3.1-1.5,7.6,4.3,11.5c4.6,3.1,8.1,6.5,9.2,9c2.4,5.1,0.6,11.8-3.7,14.1
	C631.3,249.2,626.4,249.5,623.9,248.6z M40.6,228.6l0.1-20l7,0c4.4,0,7.7,0.3,8.9,0.7c4.8,1.7,6.9,5.7,6.5,12.2
	c-0.5,7.3-3,9.8-10.7,10.8l-4.7,0.6v7.9v7.9h-3.6h-3.6L40.6,228.6L40.6,228.6z M54.7,225.1c1.1-1.1,1.3-1.7,1.3-4.7
	s-0.2-3.6-1.3-4.7c-1-1-1.8-1.3-4.1-1.3h-2.9v5.9v5.9h2.9C52.9,226.4,53.6,226.2,54.7,225.1z M68.9,228.5v-20.2h9.3h9.3v3.1v3.1
	h-5.7h-5.7v5.2v5.2h4.4h4.4v3.1v3.1h-4.4h-4.4v5.7v5.7l6.1,0.1l6.1,0.1l0.2,3l0.2,3h-9.8h-9.8L68.9,228.5L68.9,228.5z M93.7,228.5
	v-20.2H97h3.3l3,8.1c1.6,4.5,3.5,9.5,4.2,11.2l1.2,3.1l0-11.3l0-11.3l3.2,0.2l3.2,0.2l0.1,20l0.1,20h-3.2h-3.2l-4.2-12l-4.2-12l0,12
	l0,12H97h-3.4L93.7,228.5L93.7,228.5z M134.5,228.5v-20.2l9.2,0.1l9.2,0.1v1.8v1.8l-7.1,0.1l-7.1,0.1v6.7v6.7h5.2h5.2v1.8v1.8h-5.2
	h-5.2v7.8v7.8h7.5h7.5v1.8v1.8h-9.6h-9.6L134.5,228.5L134.5,228.5z M158.3,228.5v-20.2h4.4c6.9,0,9.4,0.7,12.2,3.6
	c3.6,3.6,4.3,6.5,4.3,16.9c0,9.4-0.7,12.7-3.5,16c-2.5,3.1-4.8,3.8-11.6,3.9l-5.8,0V228.5L158.3,228.5z M170.6,243.6
	c0.7-0.5,1.9-2,2.6-3.3c1.2-2.2,1.3-2.6,1.3-11.6c0-8.9-0.1-9.4-1.3-11.8c-1.6-3.1-3.9-4.4-7.6-4.4h-2.7v16.4v16.4l3.2-0.3
	C168,244.7,169.8,244.2,170.6,243.6z M237.3,248.3c0-0.5,8.2-37.8,8.6-39.1c0.2-0.7,0.9-0.9,3.3-0.9h3l4.3,19.5
	c2.4,10.7,4.4,19.8,4.5,20.2c0.2,0.5-0.4,0.6-2.1,0.6h-2.3l-0.6-3c-0.3-1.6-0.9-4.2-1.2-5.8l-0.6-2.8l-5-0.1l-5-0.1l-0.5,2.5
	c-0.3,1.4-0.8,4-1.2,6l-0.6,3.5h-2.2C238.4,248.6,237.3,248.5,237.3,248.3L237.3,248.3z M253.4,232.7c0-0.7-4-19.8-4.2-20
	c-0.1-0.1-1.1,4.4-2.3,10.1l-2.1,10.3h4.3C251.4,233.1,253.4,232.9,253.4,232.7L253.4,232.7z M267.8,230.5v-18.1h-4.1h-4.1v-2.1
	v-2.1l10.5,0.1l10.5,0.1v1.8v1.8l-4,0.2l-4,0.2v18.1v18.1h-2.3h-2.3L267.8,230.5L267.8,230.5z M284.9,228.5v-20.2h2.3h2.3v20.2v20.2
	h-2.3h-2.3V228.5z M323.7,228.5v-20.2l3.5,0l3.5,0l4.9,14.2l4.9,14.2l0.3-14l0.3-14l2.2-0.2l2.2-0.2v20.2v20.2l-2.4-0.2l-2.4-0.2
	l-6-16.7l-6-16.7l-0.1,16.9l-0.1,16.9H326h-2.3L323.7,228.5L323.7,228.5z M349.5,248.4c0-0.2,8-36.6,8.5-39c0.2-1,0.6-1.2,3.4-1.2
	c1.7,0,3.1,0.1,3.1,0.2c0,0.2,7.8,35.7,8.5,38.9c0.2,1.1,0.1,1.2-2,1.2h-2.3l-1.2-5.9l-1.2-5.9h-5h-5l-1.2,5.9l-1.2,5.9h-2.3
	C350.5,248.6,349.5,248.5,349.5,248.4L349.5,248.4z M365.5,232.7c0-1-3.9-19.8-4.2-19.8c-0.3,0-4.1,18.3-4.1,19.5
	c0,0.5,1.2,0.6,4.1,0.6C363.7,233.1,365.5,232.9,365.5,232.7z M377.4,228.5v-20.2h2.3h2.3v18.3V245h6.5h6.5v1.8v1.8h-8.8h-8.8V228.5
	z M411.5,228.5v-20.2h5.6c6.8,0,10.1,0.9,12.4,3.2c2.1,2.2,2.7,3.9,2.7,7.5c0,3.9-1.4,6.9-4.1,8.7c-1.5,1-2,1.7-1.8,2.2
	c0.2,0.5,1.7,4.8,3.4,9.8l3,8.9l-2.4-0.2l-2.4-0.2l-3.1-9.2l-3.1-9.2l-2.7,0l-2.7,0v9.3v9.3h-2.3h-2.3L411.5,228.5L411.5,228.5z
	 M424.7,225.1c2.1-1,2.9-2.6,2.9-5.9c0-5-2-6.7-8-6.7h-3.4v6.7v6.7h3.4C421.6,225.9,423.7,225.6,424.7,225.1L424.7,225.1z
	 M438.4,228.5v-20.2l9.2,0.1l9.2,0.1v1.8v1.8l-7.1,0.1l-7.1,0.1v6.7v6.7h5.2h5.2v1.8v1.8h-5.2h-5.2v7.8v7.8h7.5h7.5v1.8v1.8h-9.6
	h-9.6V228.5z M541.4,228.6l0.1-20l6.7,0c5.9,0,7,0.2,8.9,1.2c6,3.1,7.2,11.9,2.3,16.7c-1,1-2.2,2-2.7,2.1c-0.6,0.2-0.2,2,2.5,9.8
	c1.8,5.2,3.2,9.7,3.2,9.9c0,0.2-1,0.4-2.3,0.4h-2.3l-3.1-9.2l-3.1-9.2l-2.9-0.2l-2.9-0.2v9.3v9.3h-2.3h-2.3L541.4,228.6L541.4,228.6
	z M555.1,224.8c1.9-1.2,2.7-2.8,2.7-5.7c0-4.6-2.6-6.7-8.5-6.7h-3.4v6.7v6.7l3.7,0C552.5,225.9,553.8,225.6,555.1,224.8L555.1,224.8
	z M595.5,228.5v-20.2l9.2,0.1l9.2,0.1v1.8v1.8l-7.1,0.1l-7.1,0.1v6.7v6.7h5.2h5.2v1.8v1.8h-5.2h-5.2v7.8v7.8h7.5h7.5v1.8v1.8h-9.6
	h-9.6V228.5z M195.3,190.7c-29.4-3.7-52.1-24.4-58.3-53.4c-1.5-6.9-1.6-19.2-0.2-25.4c3.1-14.2,8.3-24.2,18-34.2
	c9.6-9.9,20.8-16,35-19.1c6.1-1.3,19.2-1.3,25.3,0c13.7,2.9,24,8.4,33.7,17.7c5.6,5.5,9.9,11.1,13.2,17.5l2.2,4.4l1.6-3.4
	c4.1-8.6,12.3-18.4,20.4-24.4c13.6-10.1,32.2-14.8,48.9-12.3c21.5,3.2,39.9,16.2,50.1,35.5l2.4,4.6l1.4-3
	c3.9-8.4,12.2-18.4,20.5-24.6c11.6-8.7,27.8-13.7,42.4-13c44.7,2.2,74.5,45.7,60.5,88.2c-1.8,5.5-6,13.4-9.5,18.1
	c-10.2,13.5-24.1,22.3-40.8,25.9c-7.4,1.6-18.7,1.6-26.1,0c-20.2-4.3-36.5-16.5-46.1-34.7l-2.5-4.8l-1.4,3c-2.4,5.3-8,13-12.9,17.9
	c-16.9,16.9-41,23.6-63.7,17.7c-18.9-5-34-16.9-42.8-33.8l-2.5-4.8l-1.9,3.8c-3.2,6.4-6.8,11.3-12.5,17c-9.7,9.8-20.8,15.8-34,18.5
	C209.8,190.9,200.4,191.4,195.3,190.7L195.3,190.7z M210.3,156.6c11-2.6,20.8-12.1,24.2-23.5c1.3-4.3,1.3-13.3,0-17.5
	c-4.3-14.1-15.9-23.5-30.2-24.4c-16.3-1-31.4,10.8-34.4,26.9c-0.9,5-0.9,7.2,0,12.5c1.7,9.8,8.9,19.1,17.9,23.4
	c3.8,1.8,6.2,2.5,11.3,3.4C201,157.7,207.6,157.2,210.3,156.6L210.3,156.6z M196.1,143c-6.4-2.3-10.6-6.6-12.6-13
	c-2.9-9.3,1.5-19.4,10.3-23.7c3.2-1.6,3.8-1.7,8.6-1.7c4.8,0,5.4,0.1,8.6,1.7c16.1,7.9,14.5,31.4-2.6,36.8
	C204.2,144.5,200.2,144.5,196.1,143L196.1,143z M336.4,155.7c5.2-1.8,10.7-5.4,14.1-9.2c3.3-3.7,6.5-9.8,7.6-14.4
	c1.2-4.9,0.8-13.7-0.8-18.3c-2.6-7.7-8.9-15.1-15.9-18.8c-5.7-3-8.8-3.7-15.9-3.7c-5.3,0-6.7,0.2-10,1.4
	c-10.5,3.7-18,11.4-21.6,22.1c-1.5,4.3-1.4,14.5,0.2,19.4c2.7,8.6,8.8,15.6,16.8,19.6C319.3,158,327.8,158.6,336.4,155.7
	L336.4,155.7z M310.2,124.3v-19.9h15.2h15.2v4.1v4.1h-10.1h-10.1v3.6v3.6l7.4,0.1l7.4,0.1l0.1,4l0.2,4h-7.5h-7.5v3.9v3.9h10.1h10.1
	v4.1v4.1h-15.2h-15.2L310.2,124.3L310.2,124.3z M457.7,156.3c8.6-2.2,17.2-9.3,21-17.3c3.5-7.4,4.4-13.9,2.8-21.6
	c-3.7-17.8-21.4-29.4-39.2-25.7c-9.5,2-18.8,9.2-22.9,17.8c-2.7,5.6-3.4,8.9-3.4,14.7c0,5.9,0.8,9.2,3.5,14.7
	c3.6,7.5,11.2,14.1,19.2,16.8C444.4,157.8,451.4,157.9,457.7,156.3z M431.7,124.3v-19.9l11.8,0.2l11.8,0.2l3,1.6
	c5,2.6,7.4,8.1,6,13.6c-0.6,2.4-3.6,6-5.2,6.6c-0.5,0.2-1,0.5-1,0.8c0,0.3,2,4.1,4.4,8.4c2.4,4.3,4.4,8,4.4,8.2s-2.6,0.3-5.8,0.3
	l-5.8,0l-3.9-7.5l-3.9-7.5l-2.5,0l-2.5,0v7.5v7.5h-5.4h-5.4L431.7,124.3L431.7,124.3z M453.2,119.2c1.1-1.5,0.9-4.1-0.4-5.2
	c-0.9-0.8-2.1-1-5.7-1.2l-4.6-0.2v4v4l5-0.2C451.7,120.2,452.5,120,453.2,119.2L453.2,119.2z"/>
</svg>
