<?xml version="1.0" encoding="utf-8"?>
<!-- Generator: Adobe Illustrator 16.0.4, SVG Export Plug-In . SVG Version: 6.00 Build 0)  -->
<!DOCTYPE svg PUBLIC "-//W3C//DTD SVG 1.1//EN" "http://www.w3.org/Graphics/SVG/1.1/DTD/svg11.dtd">
<svg version="1.1"
	 id="svg3137" sodipodi:docname="Oer_logo-green.png" inkscape:version="0.48.2 r9819" xmlns:inkscape="http://www.inkscape.org/namespaces/inkscape" xmlns:rdf="http://www.w3.org/1999/02/22-rdf-syntax-ns#" xmlns:sodipodi="http://sodipodi.sourceforge.net/DTD/sodipodi-0.dtd" xmlns:svg="http://www.w3.org/2000/svg" xmlns:cc="http://creativecommons.org/ns#" xmlns:dc="http://purl.org/dc/elements/1.1/"
	 xmlns="http://www.w3.org/2000/svg" xmlns:xlink="http://www.w3.org/1999/xlink" x="0px" y="0px" width="651.568px"
	 height="291.848px" viewBox="25.952 28.957 651.568 291.848" enable-background="new 25.952 28.957 651.568 291.848"
	 xml:space="preserve">
<sodipodi:namedview  inkscape:window-x="1366" inkscape:current-layer="svg3137" fit-margin-bottom="0" fit-margin-right="0" inkscape:window-height="1026" inkscape:window-y="23" inkscape:window-maximized="1" inkscape:pageopacity="0" inkscape:pageshadow="2" inkscape:window-width="1680" id="namedview3139" inkscape:cx="111.37919" inkscape:zoom="0.50247117" fit-margin-top="0" fit-margin-left="0" guidetolerance="10" borderopacity="1" showgrid="false" inkscape:cy="419.93333" gridtolerance="10" pagecolor="#ffffff" bordercolor="#666666" objecttolerance="10">
	</sodipodi:namedview>
<path id="path3999" inkscape:connector-curvature="0" fill="#FFFFFF" d="M45.844,294.136c-4.706-2.489-5.12-4.079-5.135-19.671
	c-0.013-14.111,0.248-15.461,3.532-18.225c4.858-4.089,13.615-2.664,16.425,2.671c1.16,2.209,1.198,2.68,1.198,15.3
	c0,8.345-0.212,13.652-0.589,14.778c-0.75,2.247-2.83,4.529-4.951,5.438C53.89,295.469,48.055,295.306,45.844,294.136z
	 M54.009,288.316c0.449-0.45,0.62-4.209,0.62-13.665c0-12.896-0.013-13.056-1.15-13.852c-1.565-1.098-3.296-1.011-4.534,0.229
	c-0.978,0.978-1.033,1.722-1.033,13.659c0,10.788,0.118,12.741,0.812,13.437C49.68,289.082,53.12,289.207,54.009,288.316z
	 M218.717,294.406c-2.036-0.907-4.108-3.229-4.839-5.416c-0.39-1.165-0.588-7.312-0.588-18.248v-16.491l2.196,0.16l2.197,0.157
	l0.258,16.798c0.182,11.783,0.444,17.123,0.885,17.889c1.365,2.379,6.277,2.913,8.48,0.919c1.732-1.567,1.998-4.271,2.002-20.258
	l0.003-15.665l2.196,0.16l2.196,0.157v16.539v16.539l-1.292,2.584c-1.757,3.517-4.243,4.896-8.785,4.881
	C221.779,295.103,219.569,294.786,218.717,294.406L218.717,294.406z M246.624,294.409c-5.046-2.243-7.243-9.137-6.876-21.579
	c0.262-8.775,1.198-12.334,4.124-15.657c3.214-3.651,8.697-4.374,12.716-1.675c2.036,1.369,4.274,5.676,4.642,8.932l0.265,2.352
	l-2.253-0.163c-2.211-0.16-2.264-0.206-2.622-2.317c-0.757-4.472-2.476-6.373-5.756-6.373c-2.218,0-4.275,1.569-5.314,4.055
	c-2.02,4.822-1.871,20.874,0.236,25.639c1.553,3.509,5.024,4.837,8.266,3.161c1.646-0.853,2.958-3.593,3.43-7.169l0.326-2.483
	l2.154,0.158l2.154,0.156l-0.165,2.254c-0.354,4.803-2.751,9.077-5.94,10.594C253.848,295.314,248.805,295.378,246.624,294.409
	L246.624,294.409z M330.347,294.538c-5.354-2.948-8.029-11.312-7.318-22.877c0.667-10.885,3.797-16.515,9.793-17.627
	c4.854-0.899,9.654,2.558,11.442,8.238c1.308,4.157,1.841,11.405,1.28,17.372c-0.765,8.127-3.159,13.178-7.015,14.788
	C336.512,295.275,331.797,295.335,330.347,294.538L330.347,294.538z M337.454,290.498c0.715-0.564,1.677-1.963,2.135-3.109
	c1.191-2.976,2.021-11.4,1.63-16.54c-0.681-8.879-2.832-12.921-6.884-12.921c-2.677,0-4.488,1.802-5.671,5.635
	c-1.279,4.144-1.272,18.198,0.01,22.358C330.21,290.905,334.254,293.012,337.454,290.498L337.454,290.498z M494.435,294.558
	c-2.905-1.159-5.256-4.568-5.927-8.594l-0.366-2.197h2.053c2.005,0,2.064,0.055,2.647,2.367c1.001,3.988,3.745,5.874,7.509,5.167
	c2.594-0.487,4.42-2.878,4.42-5.79c0-3.935-1.495-5.82-8.881-11.206c-4.698-3.426-6.708-6.406-7.008-10.38
	c-0.509-6.716,5.729-11.52,12.5-9.623c3.739,1.047,7.008,5.394,7.008,9.326c0,1.522-0.088,1.59-1.888,1.437
	c-1.761-0.149-1.933-0.32-2.589-2.582c-0.912-3.14-2.687-4.556-5.711-4.556c-1.849,0-2.59,0.296-3.807,1.513
	c-3.149,3.147-1.493,7.563,4.312,11.501c4.574,3.101,8.13,6.55,9.228,8.95c2.356,5.145,0.626,11.791-3.661,14.058
	C501.837,295.238,496.908,295.544,494.435,294.558L494.435,294.558z M519.905,294.12c-4.567-2.783-6.584-8.822-6.565-19.654
	c0.023-14.006,3.585-20.402,11.368-20.41c6.712-0.006,9.896,4.513,11.126,15.8c1.278,11.734-1.798,22.354-7.117,24.578
	C526.203,295.483,521.887,295.329,519.905,294.12L519.905,294.12z M528.025,290.056c0.805-0.807,1.82-2.676,2.263-4.154
	c1.767-5.951,1.522-19.3-0.442-23.997c-1.038-2.486-3.075-3.978-5.435-3.978c-4.108,0-6.053,4.149-6.541,13.954
	c-0.483,9.724,1.022,16.7,4.063,18.831C523.795,292.015,526.337,291.739,528.025,290.056L528.025,290.056z M546.376,293.968
	c-1.444-0.807-2.458-1.934-3.359-3.738l-1.292-2.586v-16.537v-16.538l2.196-0.158l2.197-0.159l0.005,15.663
	c0.005,15.988,0.269,18.691,2.002,20.26c1.342,1.215,4.376,1.611,6.279,0.824c3.188-1.32,3.326-2.12,3.505-20.278l0.162-16.409
	h2.034h2.036l-0.039,16.667c-0.042,16.93-0.179,18.312-2.093,20.973c-2.328,3.235-9.539,4.302-13.631,2.018H546.376L546.376,293.968
	z M602.191,294.538c-2.226-1.226-4.441-3.863-5.402-6.429c-1.473-3.939-2.278-11.047-1.897-16.744
	c0.759-11.31,3.96-16.615,10.492-17.388c5.07-0.601,9.046,2.388,10.713,8.052c1.284,4.374,1.191,4.685-1.397,4.685h-2.222
	l-0.628-3.03c-0.844-4.089-2.404-5.758-5.37-5.743c-3.853,0.02-5.659,2.419-6.666,8.854c-0.683,4.354-0.315,16.116,0.601,19.277
	c0.84,2.896,3.531,5.453,5.73,5.442c0.953-0.004,2.314-0.295,3.024-0.646c1.748-0.868,3.618-4.726,3.618-7.466v-2.216h2.325
	c2.29,0,2.326,0.027,2.326,1.715c0,4.704-3.055,10.073-6.564,11.542C608.872,295.276,603.639,295.334,602.191,294.538
	L602.191,294.538z M651.547,294.558c-2.904-1.159-5.256-4.57-5.927-8.594l-0.365-2.197h2.051c2.005,0,2.065,0.055,2.646,2.367
	c1.003,3.988,3.747,5.874,7.511,5.167c2.594-0.487,4.42-2.878,4.42-5.79c0-3.935-1.496-5.82-8.88-11.206
	c-4.699-3.426-6.709-6.406-7.009-10.38c-0.507-6.716,5.729-11.52,12.5-9.623c3.74,1.047,7.008,5.393,7.008,9.326
	c0,1.522-0.088,1.59-1.888,1.437c-1.761-0.149-1.933-0.32-2.589-2.582c-0.913-3.14-2.686-4.556-5.712-4.556
	c-1.847,0-2.589,0.296-3.806,1.513c-3.148,3.147-1.494,7.563,4.314,11.501c4.573,3.101,8.127,6.55,9.228,8.95
	c2.354,5.145,0.624,11.791-3.661,14.058C658.948,295.238,654.019,295.544,651.547,294.558z M68.19,274.594l0.136-20.026l6.976,0.007
	c4.446,0.004,7.685,0.255,8.927,0.691c4.771,1.673,6.887,5.651,6.469,12.16c-0.469,7.303-2.954,9.813-10.679,10.788l-4.717,0.595
	v7.907v7.906h-3.623h-3.626L68.19,274.594L68.19,274.594z M82.302,271.13c1.089-1.088,1.269-1.747,1.269-4.675
	s-0.18-3.583-1.269-4.675c-1.043-1.043-1.781-1.269-4.135-1.269h-2.867v5.943v5.943h2.867
	C80.521,272.398,81.26,272.174,82.302,271.13z M96.491,274.466V254.31h9.304h9.302v3.102v3.1h-5.685h-5.685v5.168v5.169h4.393h4.393
	v3.1v3.102h-4.393h-4.393v5.67v5.668l6.072,0.146l6.072,0.145l0.155,2.973l0.154,2.973h-9.844h-9.847V274.466z M121.298,274.466
	V254.31h3.306h3.305l2.987,8.14c1.646,4.478,3.519,9.535,4.165,11.24l1.175,3.102l0.027-11.266l0.024-11.265l3.23,0.153l3.229,0.153
	l0.137,20.026l0.135,20.028h-3.24h-3.241l-4.229-12.019l-4.233-12.015l-0.028,12.015l-0.029,12.019h-3.359h-3.359L121.298,274.466
	L121.298,274.466z M162.125,274.455v-20.168l9.175,0.14l9.173,0.142v1.81v1.809l-7.106,0.144l-7.104,0.144v6.704v6.704h5.167h5.168
	v1.809v1.81h-5.168h-5.167v7.751v7.752h7.493h7.493v1.81v1.809h-9.561h-9.562V274.455z M185.899,274.466V254.31h4.368
	c6.871,0,9.418,0.74,12.247,3.559c3.574,3.561,4.316,6.45,4.316,16.855c0,9.361-0.723,12.656-3.507,16.036
	c-2.532,3.07-4.839,3.837-11.609,3.851l-5.815,0.01V274.466L185.899,274.466z M198.252,289.579c0.738-0.545,1.925-2.018,2.636-3.272
	c1.245-2.197,1.292-2.61,1.292-11.595c0-8.926-0.055-9.423-1.292-11.827c-1.609-3.128-3.861-4.441-7.615-4.441h-2.721v16.353v16.352
	l3.178-0.289C195.673,290.682,197.432,290.185,198.252,289.579z M264.971,294.264c0-0.463,8.216-37.849,8.58-39.05
	c0.223-0.726,0.868-0.904,3.267-0.904h2.989l4.282,19.509c2.354,10.731,4.39,19.802,4.523,20.156
	c0.171,0.458-0.441,0.646-2.104,0.646h-2.343l-0.599-2.972c-0.329-1.634-0.873-4.25-1.211-5.814l-0.612-2.842l-4.98-0.147
	l-4.983-0.147l-0.526,2.473c-0.291,1.362-0.816,4.044-1.171,5.961l-0.64,3.489h-2.236
	C265.978,294.623,264.971,294.461,264.971,294.264L264.971,294.264z M280.994,278.675c0-0.735-4.025-19.775-4.223-19.971
	c-0.101-0.102-1.136,4.449-2.301,10.114l-2.119,10.299h4.319C279.048,279.117,280.994,278.918,280.994,278.675L280.994,278.675z
	 M295.464,276.532v-18.087h-4.135h-4.134v-2.078v-2.078l10.465,0.141l10.466,0.139v1.81v1.809l-4.005,0.151l-4.006,0.151v18.065
	v18.068h-2.326h-2.325V276.532L295.464,276.532z M312.517,274.466V254.31h2.326h2.325v20.155v20.157h-2.325h-2.326V274.466z
	 M351.279,274.466V254.31l3.488,0.003l3.488,0.004l4.911,14.156l4.909,14.154l0.259-14.027l0.258-14.032l2.197-0.157l2.196-0.16
	v20.213v20.214l-2.431-0.158l-2.429-0.157l-5.97-16.729l-5.968-16.727l-0.137,16.857l-0.137,16.857h-2.317h-2.319V274.466
	L351.279,274.466z M377.12,294.44c0-0.179,7.983-36.642,8.531-38.967c0.246-1.046,0.585-1.163,3.365-1.163
	c1.7,0,3.091,0.107,3.091,0.238c0,0.205,7.79,35.732,8.534,38.911c0.249,1.07,0.091,1.163-1.996,1.163h-2.27l-1.168-5.943
	l-1.167-5.943h-5.034h-5.034l-1.167,5.943l-1.168,5.943h-2.259C378.135,294.623,377.12,294.539,377.12,294.44L377.12,294.44z
	 M393.148,278.729c0.023-1.036-3.911-19.768-4.152-19.768c-0.273,0-4.142,18.263-4.129,19.509c0.004,0.464,1.179,0.646,4.14,0.646
	C391.28,279.117,393.144,278.943,393.148,278.729z M405.027,274.466V254.31h2.325h2.326v18.347v18.348h6.46h6.461v1.809v1.81h-8.787
	h-8.785V274.466z M439.136,274.466V254.31h5.591c6.771,0,10.079,0.862,12.35,3.216c2.109,2.186,2.734,3.92,2.72,7.543
	c-0.015,3.946-1.406,6.888-4.104,8.673c-1.5,0.993-2.034,1.652-1.805,2.23c0.18,0.45,1.694,4.845,3.365,9.762l3.04,8.943
	l-2.411-0.156l-2.406-0.158l-3.13-9.168l-3.13-9.167l-2.714-0.007l-2.713-0.005v9.303v9.302h-2.326h-2.326V274.466L439.136,274.466z
	 M452.296,271.082c2.074-0.984,2.863-2.613,2.863-5.919c0-4.989-2.049-6.718-7.96-6.718h-3.41v6.718v6.719h3.41
	C449.208,271.882,451.302,271.553,452.296,271.082L452.296,271.082z M466.011,274.455v-20.168l9.173,0.14l9.173,0.142v1.81v1.809
	l-7.105,0.144l-7.105,0.144v6.704v6.704h5.167h5.169v1.809v1.81h-5.169h-5.167v7.751v7.752h7.493h7.493v1.81v1.809h-9.56h-9.562
	V274.455z M568.98,274.594l0.135-20.026l6.72,0.023c5.879,0.02,6.988,0.163,8.872,1.153c5.96,3.124,7.17,11.862,2.311,16.692
	c-1.034,1.027-2.229,1.99-2.656,2.138c-0.637,0.219-0.2,1.965,2.456,9.792c1.776,5.239,3.229,9.69,3.229,9.891
	c0,0.203-1.027,0.365-2.283,0.365h-2.282l-3.057-9.173l-3.054-9.174l-2.932-0.154l-2.932-0.155v9.329v9.327h-2.331h-2.333
	L568.98,274.594L568.98,274.594z M582.693,270.846c1.939-1.182,2.703-2.803,2.703-5.742c0-4.617-2.612-6.659-8.511-6.659h-3.378
	v6.718v6.719l3.748-0.002C580.089,271.879,581.414,271.626,582.693,270.846L582.693,270.846z M623.123,274.455v-20.168l9.173,0.14
	l9.174,0.142v1.81v1.809l-7.106,0.144l-7.106,0.144v6.704v6.704h5.168h5.169v1.809v1.81h-5.169h-5.168v7.751v7.752h7.494h7.493v1.81
	v1.809h-9.561h-9.561V274.455z M222.907,236.742c-29.447-3.713-52.084-24.442-58.28-53.372c-1.474-6.873-1.571-19.164-0.207-25.445
	c3.083-14.194,8.346-24.188,17.997-34.185c9.555-9.896,20.827-16.043,35.033-19.103c6.078-1.308,19.194-1.308,25.271,0
	c13.656,2.94,24.025,8.404,33.66,17.729c5.633,5.454,9.926,11.14,13.182,17.47l2.245,4.362l1.604-3.363
	c4.085-8.56,12.297-18.379,20.379-24.375c13.607-10.09,32.154-14.768,48.857-12.32c21.51,3.153,39.901,16.179,50.097,35.478
	l2.42,4.577l1.384-3.016c3.85-8.387,12.178-18.397,20.504-24.647c11.631-8.731,27.835-13.688,42.395-12.969
	c44.727,2.209,74.522,45.659,60.494,88.214c-1.802,5.465-5.97,13.382-9.543,18.127c-10.179,13.517-24.07,22.338-40.752,25.873
	c-7.422,1.573-18.659,1.573-26.083,0c-20.222-4.288-36.485-16.536-46.083-34.702l-2.508-4.753l-1.382,3.014
	c-2.41,5.263-7.983,13.023-12.887,17.942c-16.864,16.916-41.032,23.612-63.719,17.653c-18.936-4.972-34.036-16.91-42.761-33.801
	l-2.464-4.771l-1.904,3.78c-3.212,6.387-6.812,11.296-12.479,17.017c-9.73,9.824-20.763,15.83-34.039,18.534
	C237.416,236.897,227.988,237.384,222.907,236.742L222.907,236.742z M237.972,202.577c10.991-2.611,20.823-12.136,24.217-23.463
	c1.276-4.256,1.278-13.319,0.003-17.544c-4.257-14.111-15.934-23.534-30.244-24.407c-16.298-0.994-31.386,10.788-34.43,26.88
	c-0.938,4.972-0.938,7.181,0.008,12.487c1.736,9.751,8.894,19.121,17.889,23.421c3.803,1.819,6.187,2.537,11.313,3.414
	C228.66,203.697,235.187,203.238,237.972,202.577L237.972,202.577z M223.771,189.049c-6.439-2.303-10.649-6.625-12.614-12.957
	c-2.899-9.339,1.452-19.352,10.304-23.71c3.191-1.571,3.809-1.692,8.625-1.692c4.809,0,5.439,0.123,8.594,1.675
	c16.114,7.933,14.472,31.449-2.575,36.825C231.836,190.536,227.802,190.49,223.771,189.049L223.771,189.049z M364.001,201.653
	c5.174-1.772,10.706-5.384,14.129-9.226c3.255-3.651,6.478-9.794,7.562-14.412c1.16-4.95,0.786-13.698-0.783-18.283
	c-2.62-7.664-8.93-15.089-15.94-18.759c-5.654-2.961-8.835-3.697-15.881-3.674c-5.346,0.017-6.725,0.207-9.993,1.37
	c-10.464,3.73-17.969,11.409-21.594,22.096c-1.461,4.31-1.369,14.508,0.173,19.381c2.719,8.579,8.775,15.65,16.827,19.647
	C346.906,203.968,355.427,204.588,364.001,201.653L364.001,201.653z M337.843,170.328v-19.897h15.245h15.247v4.134v4.134h-10.079
	h-10.077v3.604v3.604l7.364,0.142l7.365,0.144l0.15,4.005l0.151,4.005h-7.516h-7.516v3.875v3.876h10.077h10.079v4.135v4.135h-15.247
	h-15.245V170.328z M485.306,202.329c8.557-2.206,17.156-9.299,21.002-17.319c3.527-7.355,4.383-13.908,2.814-21.551
	c-3.656-17.826-21.375-29.427-39.235-25.69c-9.545,1.997-18.77,9.187-22.873,17.83c-2.651,5.583-3.427,8.916-3.427,14.729
	c0,5.876,0.783,9.206,3.466,14.729c3.646,7.504,11.221,14.124,19.201,16.781C472.053,203.769,479.027,203.949,485.306,202.329z
	 M459.293,170.293v-19.931l11.796,0.163l11.796,0.164l3.045,1.559c5.04,2.579,7.441,8.063,5.95,13.587
	c-0.636,2.359-3.574,6.046-5.236,6.574c-0.547,0.173-0.993,0.549-0.993,0.833c0,0.286,1.977,4.07,4.393,8.412
	c2.416,4.34,4.393,8.045,4.393,8.232s-2.615,0.337-5.814,0.334l-5.813-0.007l-3.876-7.482l-3.876-7.481l-2.455-0.006l-2.454-0.006
	v7.493v7.495h-5.428h-5.426V170.293L459.293,170.293z M480.781,165.19c1.094-1.494,0.917-4.098-0.354-5.247
	c-0.855-0.776-2.06-1.023-5.685-1.166l-4.597-0.181v3.977v3.978l4.951-0.18C479.278,166.222,480.164,166.038,480.781,165.19
	L480.781,165.19z"/>
</svg>
