<?xml version="1.0" encoding="utf-8"?>
<!-- Generator: Adobe Illustrator 16.0.4, SVG Export Plug-In . SVG Version: 6.00 Build 0)  -->
<!DOCTYPE svg PUBLIC "-//W3C//DTD SVG 1.0//EN" "http://www.w3.org/TR/2001/REC-SVG-20010904/DTD/svg10.dtd">
<svg version="1.0" id="Ebene_1" xmlns="http://www.w3.org/2000/svg" xmlns:xlink="http://www.w3.org/1999/xlink" x="0px" y="0px"
	 width="441.697px" height="83.286px" viewBox="0 0 441.697 83.286" enable-background="new 0 0 441.697 83.286"
	 xml:space="preserve">
<g>
	<g>
		<path fill="none" d="M6.942,0.79L0,4.376C0.375,0.473,3.325-1.081,6.942,0.79z"/>
		<path fill="#CCB90C" d="M0,4.376v14.836L19.425,7.997L6.942,0.79C3.325-1.081,0.375,0.473,0,4.376z"/>
	</g>
	<polygon fill="#E5CB0E" points="0,41.641 0,19.212 19.425,30.427 	"/>
	<polygon fill="#B29E0B" points="19.425,30.427 19.425,7.997 38.85,19.212 	"/>
	<polygon fill="#00476B" points="0,64.073 0,41.641 19.425,52.859 	"/>
	<g>
		<path fill="none" d="M0,78.909l6.951,3.582C3.329,84.37,0.375,82.815,0,78.909z"/>
		<path fill="#005386" d="M6.951,82.491l12.474-7.201L0,64.073v14.836C0.375,82.815,3.329,84.37,6.951,82.491z"/>
	</g>
	<polygon fill="#00699E" points="19.425,75.29 19.425,52.859 38.85,64.073 	"/>
	<polygon fill="#FA4834" points="38.85,41.641 38.85,19.212 58.275,30.427 	"/>
	<polygon fill="#C6372C" points="38.85,64.073 38.85,41.641 58.275,52.859 	"/>
	<g>
		<path fill="none" d="M70.719,45.672l0.021-8.049C74.294,39.902,74.287,43.397,70.719,45.672z"/>
		<path fill="#E03E32" d="M70.74,37.623l-12.465-7.196v22.432l12.444-7.187C74.287,43.397,74.294,39.902,70.74,37.623z"/>
	</g>
</g>
<g>
	<path fill="#494949" d="M107.532,57.795c-9.58,0-13.479-5.104-13.479-18.68c0-13.576,3.803-18.63,13.479-18.63
		s13.383,5.055,13.383,18.63C120.916,52.836,117.208,57.795,107.532,57.795z M107.484,24.866c-6.258,0-8.666,2.792-8.666,14.25
		c0,11.458,2.456,14.299,8.714,14.299s8.617-2.841,8.617-14.299C116.149,27.61,113.839,24.866,107.484,24.866z"/>
	<path fill="#494949" d="M138.248,57.698c-2.696,0-5.151-0.77-6.932-2.984l-0.097,0.049l0.048,3.898v5.488h-4.285V28.525
		l2.985-0.193l0.867,2.792h0.144c1.637-1.974,4.381-3.177,7.51-3.177c6.307,0,9.869,3.37,9.869,14.779
		C148.358,53.461,144.506,57.698,138.248,57.698z M137.478,31.943c-2.744,0-4.911,1.155-6.21,3.226v15.309
		c0.963,1.83,2.985,3.467,5.97,3.467c4.043,0,6.788-2.167,6.788-11.266C144.025,34.013,141.714,31.943,137.478,31.943z"/>
	<path fill="#494949" d="M153.703,42.004c0-9.292,3.514-14.057,10.735-14.057c6.258,0,10.302,3.803,10.302,13.19
		c0,0.722-0.048,1.589-0.145,2.215h-16.512c0.192,7.991,2.647,10.447,8.232,10.447c2.648,0,4.862-0.627,7.029-1.733l0.481,3.659
		c-2.167,1.252-4.814,1.973-7.992,1.973C157.266,57.698,153.703,53.077,153.703,42.004z M170.793,40.319
		c-0.048-6.403-2.6-8.617-6.307-8.617c-4.381,0-6.258,2.648-6.499,8.617H170.793z"/>
	<path fill="#494949" d="M196.213,57.168V37.527c0-3.948-2.07-5.633-5.777-5.633c-2.263,0-4.814,1.156-5.97,3.129v22.145h-4.236
		V28.477l3.033-0.241l0.674,2.889h0.145c1.733-2.022,4.573-3.226,7.51-3.226c5.44,0,8.81,3.177,8.81,9.628v19.641H196.213z"/>
	<path fill="#494949" d="M230.009,51.296l-0.192,5.873h-20.123V21.063h6.258v30.233H230.009z"/>
	<path fill="#494949" d="M233.14,42.101c0-9.436,3.659-14.394,11.361-14.394c6.595,0,10.735,3.947,10.735,13.335
		c0,0.963-0.096,2.07-0.192,2.937h-15.983c0.241,6.451,2.551,8.474,7.654,8.474c2.551,0,4.814-0.53,7.029-1.493l0.625,4.862
		c-2.166,1.156-5.055,1.877-8.376,1.877C236.991,57.698,233.14,52.788,233.14,42.101z M249.893,39.934
		c-0.048-5.392-2.118-7.221-5.344-7.221c-3.803,0-5.344,2.022-5.584,7.221H249.893z"/>
	<path fill="#494949" d="M275.409,54.135l-0.145-0.047c-1.588,2.215-4.188,3.514-7.365,3.514c-5.007,0-8.28-2.889-8.28-9.436
		c0-5.488,3.418-8.906,9.58-8.906c2.022,0,3.899,0.337,5.392,0.867v-2.359c0-3.659-1.637-5.055-5.536-5.055
		c-2.792,0-4.91,0.53-7.317,1.637l-0.481-4.862c2.6-1.252,5.585-1.83,8.81-1.83c7.414,0,10.206,3.177,10.206,10.976v18.534h-4.381
		L275.409,54.135z M274.59,44.267c-0.674-0.385-2.166-0.818-4.332-0.818c-3.611,0-5.2,1.588-5.2,4.669
		c0,3.418,1.782,4.669,4.381,4.669c2.695,0,5.15-1.829,5.15-3.995V44.267z"/>
	<path fill="#494949" d="M286.724,57.168V28.332l4.573-0.241l0.481,5.2h0.145c1.637-3.659,4.332-5.584,7.606-5.584
		c1.059,0,2.021,0.144,2.743,0.385l-0.385,5.97c-0.818-0.241-1.733-0.385-2.696-0.385c-3.803,0-6.739,3.129-6.739,8.473v15.02
		H286.724z"/>
	<path fill="#494949" d="M323.312,57.168V37.816c0-3.466-1.733-4.862-4.911-4.862c-1.925,0-4.092,0.963-5.103,2.552v21.663h-5.729
		V28.284l4.14-0.289l0.866,2.6c1.926-1.877,4.622-2.937,7.462-2.937c5.537,0,9.003,3.418,9.003,10.11v19.4H323.312z"/>
	<path fill="#494949" d="M358.071,21.063l5.873,27.729l0.771,3.804h0.145l0.626-3.852l5.199-27.681h4.573l-7.751,36.105h-5.584
		l-5.681-27.681l-0.674-3.852h-0.145l-0.723,3.852l-5.632,27.681h-5.633l-7.751-36.105h4.766l5.2,27.729l0.674,3.851h0.145
		l0.722-3.803l5.873-27.777H358.071z"/>
	<path fill="#494949" d="M393.025,53.75l-0.145-0.047c-1.541,2.406-4.285,3.85-7.606,3.85c-4.814,0-8.088-2.744-8.088-9.146
		c0-5.536,3.273-8.714,9.436-8.714c2.166,0,4.236,0.434,5.825,1.06v-3.081c0-4.525-1.829-6.018-6.018-6.018
		c-2.696,0-4.959,0.53-7.27,1.685l-0.385-3.659c2.503-1.251,5.295-1.83,8.376-1.83c6.836,0,9.484,2.889,9.484,10.447v18.871h-3.226
		L393.025,53.75z M392.447,43.882c-0.626-0.433-2.503-1.011-5.055-1.011c-4.285,0-6.162,1.925-6.162,5.488
		c0,4.14,2.166,5.585,5.199,5.585c3.177,0,6.018-2.311,6.018-4.767V43.882z"/>
	<path fill="#494949" d="M403.375,57.168V28.573l3.369-0.241l0.145,2.167l0.145,3.899h0.097c1.685-4.044,4.525-6.403,8.039-6.403
		c0.963,0,1.878,0.145,2.6,0.337l-0.288,4.478c-0.771-0.289-1.638-0.385-2.552-0.385c-4.044,0-7.317,3.707-7.317,9.772v14.972
		H403.375z"/>
	<path fill="#494949" d="M420.659,42.004c0-9.292,3.515-14.057,10.736-14.057c6.258,0,10.302,3.803,10.302,13.19
		c0,0.722-0.048,1.589-0.145,2.215H425.04c0.193,7.991,2.648,10.447,8.232,10.447c2.647,0,4.862-0.627,7.028-1.733l0.481,3.659
		c-2.166,1.252-4.813,1.973-7.991,1.973C424.221,57.698,420.659,53.077,420.659,42.004z M437.75,40.319
		c-0.049-6.403-2.6-8.617-6.307-8.617c-4.381,0-6.259,2.648-6.499,8.617H437.75z"/>
</g>
</svg>
