<?xml version="1.0" encoding="utf-8"?>
<!-- Generator: Adobe Illustrator 16.0.4, SVG Export Plug-In . SVG Version: 6.00 Build 0)  -->
<!DOCTYPE svg PUBLIC "-//W3C//DTD SVG 1.1//EN" "http://www.w3.org/Graphics/SVG/1.1/DTD/svg11.dtd">
<svg version="1.1" id="Ebene_3" xmlns="http://www.w3.org/2000/svg" xmlns:xlink="http://www.w3.org/1999/xlink" x="0px" y="0px"
	 width="651.568px" height="291.848px" viewBox="25.952 28.957 651.568 291.848"
	 enable-background="new 25.952 28.957 651.568 291.848" xml:space="preserve">
<g>
	<g>
		<defs>
			<rect id="SVGID_1_" x="0" y="64.025" width="698.784" height="279.514"/>
		</defs>
		<clipPath id="SVGID_2_">
			<use xlink:href="#SVGID_1_"  overflow="visible"/>
		</clipPath>
		<path id="path2424" clip-path="url(#SVGID_2_)" fill="#FFFFFF" d="M255.136,148.562v8.587h25.174v-8.587
			c0-20.78,16.908-37.686,37.686-37.686s37.685,16.906,37.685,37.686v62.1h25.175v-62.1c0-34.66-28.2-62.86-62.859-62.86
			C283.338,85.702,255.136,113.902,255.136,148.562"/>
	</g>
</g>
<g>
	<g>
		<defs>
			<rect id="SVGID_3_" x="0" y="64.025" width="698.784" height="279.514"/>
		</defs>
		<clipPath id="SVGID_4_">
			<use xlink:href="#SVGID_3_"  overflow="visible"/>
		</clipPath>
		<path id="path2426" clip-path="url(#SVGID_4_)" fill="#FFFFFF" d="M338.864,246.905c0,11.469-9.297,20.765-20.768,20.765
			c-11.468,0-20.769-9.297-20.769-20.765c0-11.474,9.3-20.773,20.769-20.773C329.566,226.132,338.864,235.43,338.864,246.905"/>
	</g>
</g>
<g>
	<g>
		<defs>
			<rect id="SVGID_5_" x="0" y="64.025" width="698.784" height="279.514"/>
		</defs>
		<clipPath id="SVGID_6_">
			<use xlink:href="#SVGID_5_"  overflow="visible"/>
		</clipPath>
		<path id="path2428" clip-path="url(#SVGID_6_)" fill="#FFFFFF" d="M268.904,246.681c0-26.992,21.959-48.951,48.951-48.951
			c26.989,0,48.946,21.959,48.946,48.951c0,26.99-21.957,48.95-48.946,48.95C290.863,295.632,268.904,273.67,268.904,246.681
			 M243.73,246.681c0,40.868,33.255,74.123,74.125,74.123s74.122-33.255,74.122-74.123c0-40.873-33.252-74.125-74.122-74.125
			S243.73,205.808,243.73,246.681"/>
	</g>
</g>
<g>
	<g>
		<defs>
			<rect id="SVGID_7_" x="0" y="64.025" width="698.784" height="279.514"/>
		</defs>
		<clipPath id="SVGID_8_">
			<use xlink:href="#SVGID_7_"  overflow="visible"/>
		</clipPath>
		<path id="path2430" clip-path="url(#SVGID_8_)" fill="#FFFFFF" d="M50.217,239.833c7.713,0,12.131-7.264,12.131-17.146
			c0-9.065-4.267-16.855-12.131-16.855s-12.284,7.638-12.284,17.076c0,9.517,4.57,16.926,12.211,16.926H50.217z M49.693,248.9
			c-14.903,0-23.74-11.31-23.74-25.688c0-15.135,9.735-26.438,24.564-26.438c15.501,0,23.963,11.604,23.963,25.535
			c0,16.631-9.961,26.592-24.715,26.592H49.693z"/>
	</g>
</g>
<g>
	<g>
		<defs>
			<rect id="SVGID_9_" x="0" y="64.025" width="698.784" height="279.514"/>
		</defs>
		<clipPath id="SVGID_10_">
			<use xlink:href="#SVGID_9_"  overflow="visible"/>
		</clipPath>
		<path id="path2432" clip-path="url(#SVGID_10_)" fill="#FFFFFF" d="M95.938,221.182c0.971,0.231,2.171,0.301,3.815,0.301
			c6.07,0,9.812-3.068,9.812-8.161c0-4.642-3.145-7.413-8.91-7.413c-2.321,0-3.895,0.148-4.717,0.37V221.182z M84.628,198.271
			c3.517-0.601,8.462-1.048,15.428-1.048c7.036,0,12.131,1.343,15.5,4.118c3.222,2.468,5.319,6.665,5.319,11.607
			c0,5.016-1.572,9.21-4.57,11.982c-3.897,3.594-9.735,5.317-16.476,5.317c-1.498,0-2.846-0.075-3.894-0.305v18.132H84.628V198.271
			L84.628,198.271z"/>
	</g>
</g>
<g>
	<g>
		<defs>
			<rect id="SVGID_11_" x="0" y="64.025" width="698.784" height="279.514"/>
		</defs>
		<clipPath id="SVGID_12_">
			<use xlink:href="#SVGID_11_"  overflow="visible"/>
		</clipPath>
		<path id="path2434" clip-path="url(#SVGID_12_)" fill="#FFFFFF" d="M160.828,226.728h-18.575v11.979h20.746v9.366h-32.128v-50.48
			h31.08v9.363h-19.698v10.486h18.575V226.728L160.828,226.728z"/>
	</g>
</g>
<g>
	<g>
		<defs>
			<rect id="SVGID_13_" x="0" y="64.025" width="698.784" height="279.514"/>
		</defs>
		<clipPath id="SVGID_14_">
			<use xlink:href="#SVGID_13_"  overflow="visible"/>
		</clipPath>
		<path id="path2436" clip-path="url(#SVGID_14_)" fill="#FFFFFF" d="M176.406,248.076v-50.482h13.33l10.483,18.497
			c2.999,5.323,5.917,11.61,8.237,17.303h0.152c-0.673-6.665-0.901-13.479-0.901-21.121v-14.679h10.486v50.482h-11.982
			l-10.785-19.475c-2.997-5.47-6.367-11.908-8.762-17.825h-0.302c0.373,6.742,0.526,13.855,0.526,22.093v15.207H176.406z"/>
	</g>
</g>
<g>
	<g>
		<defs>
			<rect id="SVGID_15_" x="0" y="64.025" width="698.784" height="279.514"/>
		</defs>
		<clipPath id="SVGID_16_">
			<use xlink:href="#SVGID_15_"  overflow="visible"/>
		</clipPath>
		<path id="path2438" clip-path="url(#SVGID_16_)" fill="#FFFFFF" d="M437.12,226.582l-3.144-10.713
			c-0.824-2.995-1.726-6.812-2.474-9.738h-0.22c-0.677,2.994-1.503,6.812-2.251,9.738l-3.067,10.713H437.12z M424.311,235.112
			l-3.514,12.962H408.96l15.427-50.482h14.908l15.723,50.482h-12.282l-3.897-12.962H424.311L424.311,235.112z"/>
	</g>
</g>
<g>
	<g>
		<defs>
			<rect id="SVGID_17_" x="0" y="64.025" width="698.784" height="279.514"/>
		</defs>
		<clipPath id="SVGID_18_">
			<use xlink:href="#SVGID_17_"  overflow="visible"/>
		</clipPath>
		<path id="path2440" clip-path="url(#SVGID_18_)" fill="#FFFFFF" d="M498.068,246.723c-2.021,0.974-6.812,2.177-12.881,2.177
			c-17.449,0-26.438-10.939-26.438-25.389c0-17.232,12.286-26.742,27.561-26.742c5.92,0,10.411,1.203,12.434,2.25l-2.395,8.987
			c-2.25-0.971-5.466-1.876-9.59-1.876c-8.988,0-16.03,5.47-16.03,16.776c0,10.108,5.993,16.479,16.106,16.479
			c3.514,0,7.262-0.679,9.584-1.649L498.068,246.723z"/>
	</g>
</g>
<g>
	<g>
		<defs>
			<rect id="SVGID_19_" x="0" y="64.025" width="698.784" height="279.514"/>
		</defs>
		<clipPath id="SVGID_20_">
			<use xlink:href="#SVGID_19_"  overflow="visible"/>
		</clipPath>
		<path id="path2442" clip-path="url(#SVGID_20_)" fill="#FFFFFF" d="M542.982,246.723c-2.023,0.974-6.813,2.177-12.886,2.177
			c-17.447,0-26.435-10.939-26.435-25.389c0-17.232,12.285-26.742,27.562-26.742c5.917,0,10.41,1.203,12.432,2.25l-2.396,8.987
			c-2.245-0.971-5.471-1.876-9.588-1.876c-8.986,0-16.026,5.47-16.026,16.776c0,10.108,5.994,16.479,16.1,16.479
			c3.523,0,7.269-0.679,9.589-1.649L542.982,246.723z"/>
	</g>
</g>
<g>
	<g>
		<defs>
			<rect id="SVGID_21_" x="0" y="64.025" width="698.784" height="279.514"/>
		</defs>
		<clipPath id="SVGID_22_">
			<use xlink:href="#SVGID_21_"  overflow="visible"/>
		</clipPath>
		<path id="path2444" clip-path="url(#SVGID_22_)" fill="#FFFFFF" d="M586.191,226.728h-18.574v11.979h20.748v9.366h-32.13v-50.48
			h31.083v9.363h-19.701v10.486h18.574V226.728L586.191,226.728z"/>
	</g>
</g>
<g>
	<g>
		<defs>
			<rect id="SVGID_23_" x="0" y="64.025" width="698.784" height="279.514"/>
		</defs>
		<clipPath id="SVGID_24_">
			<use xlink:href="#SVGID_23_"  overflow="visible"/>
		</clipPath>
		<path id="path2446" clip-path="url(#SVGID_24_)" fill="#FFFFFF" d="M602.144,236.387c2.994,1.573,7.788,3.147,12.658,3.147
			c5.239,0,8.014-2.171,8.014-5.539c0-3.07-2.396-4.945-8.463-7.044c-8.39-2.992-13.932-7.638-13.932-15.051
			c0-8.615,7.266-15.132,19.099-15.132c5.769,0,9.885,1.126,12.884,2.545l-2.548,9.14c-1.944-0.972-5.619-2.396-10.48-2.396
			c-4.95,0-7.343,2.319-7.343,4.866c0,3.223,2.771,4.645,9.362,7.188c8.912,3.303,13.033,7.94,13.033,15.131
			c0,8.468-6.441,15.658-20.299,15.658c-5.767,0-11.461-1.574-14.305-3.147L602.144,236.387z"/>
	</g>
</g>
<g>
	<g>
		<defs>
			<rect id="SVGID_25_" x="0" y="64.025" width="698.784" height="279.514"/>
		</defs>
		<clipPath id="SVGID_26_">
			<use xlink:href="#SVGID_25_"  overflow="visible"/>
		</clipPath>
		<path id="path2448" clip-path="url(#SVGID_26_)" fill="#FFFFFF" d="M645.245,236.387c2.994,1.573,7.785,3.147,12.652,3.147
			c5.245,0,8.018-2.171,8.018-5.539c0-3.07-2.4-4.945-8.468-7.044c-8.383-2.992-13.926-7.638-13.926-15.051
			c0-8.615,7.261-15.132,19.094-15.132c5.77,0,9.888,1.126,12.885,2.545l-2.546,9.14c-1.945-0.972-5.615-2.396-10.486-2.396
			c-4.943,0-7.338,2.319-7.338,4.866c0,3.223,2.768,4.645,9.361,7.188c8.91,3.303,13.029,7.94,13.029,15.131
			c0,8.468-6.441,15.658-20.297,15.658c-5.763,0-11.458-1.574-14.3-3.147L645.245,236.387z"/>
	</g>
</g>
</svg>
