<?xml version="1.0" encoding="utf-8"?>
<!-- Generator: Adobe Illustrator 17.1.0, SVG Export Plug-In . SVG Version: 6.00 Build 0)  -->
<!DOCTYPE svg PUBLIC "-//W3C//DTD SVG 1.1//EN" "http://www.w3.org/Graphics/SVG/1.1/DTD/svg11.dtd">
<svg version="1.1"
	 id="svg3137" inkscape:version="0.48.2 r9819" sodipodi:docname="Oer_logo-green.png" xmlns:inkscape="http://www.inkscape.org/namespaces/inkscape" xmlns:rdf="http://www.w3.org/1999/02/22-rdf-syntax-ns#" xmlns:dc="http://purl.org/dc/elements/1.1/" xmlns:cc="http://creativecommons.org/ns#" xmlns:sodipodi="http://sodipodi.sourceforge.net/DTD/sodipodi-0.dtd" xmlns:svg="http://www.w3.org/2000/svg"
	 xmlns="http://www.w3.org/2000/svg" xmlns:xlink="http://www.w3.org/1999/xlink" x="0px" y="0px" viewBox="175.6 12.6 319.4 272.9"
	 enable-background="new 175.6 12.6 319.4 272.9" xml:space="preserve">
<sodipodi:namedview  inkscape:window-y="23" inkscape:window-height="1026" inkscape:window-width="1680" fit-margin-right="0" fit-margin-bottom="0" inkscape:current-layer="svg3137" inkscape:window-x="1366" inkscape:window-maximized="1" inkscape:pageopacity="0" inkscape:pageshadow="2" inkscape:zoom="0.50247117" inkscape:cy="419.93333" id="namedview3139" inkscape:cx="111.37919" gridtolerance="10" guidetolerance="10" showgrid="false" bordercolor="#666666" objecttolerance="10" fit-margin-top="0" pagecolor="#ffffff" borderopacity="1" fit-margin-left="0">
	</sodipodi:namedview>
<g>
	<g>
		<path fill="#CACACA" d="M367.8,209.1c-0.5,0-1-0.1-1.4-0.3c-0.8-0.4-1.5-1.1-1.8-1.9L342,146.7c-0.7-1.8,0.2-3.7,2-4.4
			c11.8-4.4,19.6-15.8,19.6-28.4c0-16.7-13.6-30.3-30.3-30.3c-16.7,0-30.3,13.6-30.3,30.3c0,12.6,7.9,23.9,19.6,28.4
			c1.8,0.7,2.6,2.6,2,4.4l-22.6,60.2c-0.3,0.8-1,1.5-1.8,1.9c-0.8,0.4-1.8,0.4-2.6,0.1C258.5,194.2,232,156,232,114
			c0-55.9,45.5-101.4,101.4-101.4c55.9,0,101.4,45.5,101.4,101.4c0,42-26.4,80.2-65.8,94.9C368.6,209.1,368.2,209.1,367.8,209.1z
			 M349.6,147.4l20.2,53.9c35-14.6,58.2-49.3,58.2-87.3c0-52.2-42.4-94.6-94.6-94.6c-52.2,0-94.6,42.4-94.6,94.6
			c0,38.1,23.3,72.7,58.2,87.3l20.2-53.9c-12.6-6.1-20.9-19.2-20.9-33.4c0-20.4,16.6-37.1,37.1-37.1c20.5,0,37.1,16.6,37.1,37.1
			C370.5,128.2,362.2,141.2,349.6,147.4z"/>
	</g>
	<path fill="#CACACA" d="M429.4,181.6v18.1h-3.8v-18.1h-6.2v-2.9h16.2v2.9H429.4z"/>
	<path fill="#CACACA" d="M459.1,189.4c0-0.2-0.1-0.6-0.2-1.4c-0.1-0.6-0.2-1.1-0.2-1.5c-0.1,0.5-0.2,1-0.4,1.4
		c-0.2,0.5-0.4,1-0.7,1.5l-6.1,11.2l-6.1-11.4c-0.3-0.5-0.5-0.9-0.7-1.4c-0.2-0.4-0.3-0.9-0.5-1.3c0,0.4,0,0.9-0.1,1.4
		c-0.1,0.5-0.2,1-0.3,1.5l-2.5,10.3h-3.5l5.5-21.9l6.9,13.3c0.1,0.2,0.3,0.6,0.5,1c0.2,0.5,0.5,1.1,0.8,1.8c0.2-0.6,0.6-1.4,1.1-2.3
		c0.1-0.3,0.2-0.4,0.3-0.6l6.7-13.3l5.6,21.9h-3.5L459.1,189.4z"/>
	<path fill="#CACACA" d="M197.6,254c0,4-3.3,7.3-7.3,7.3c-4.2,0-7.4-3.3-7.4-7.3v-10.6c0-4,3.3-7.4,7.4-7.4c4.1,0,7.3,3.3,7.3,7.4
		V254z M205,254v-10.6c0-8.2-5.8-13.9-14.7-13.9c-8.9,0-14.7,5.6-14.7,13.9V254c0,8.3,5.8,13.9,14.7,13.9
		C199.2,267.9,205,262.4,205,254z"/>
	<path fill="#CACACA" d="M231.1,253.2c0,4-3.2,7.4-7.4,7.4c-4.1,0-7.4-3.3-7.4-7.4v-9c0-4,3.3-7.4,7.4-7.4c4.2,0,7.4,3.3,7.4,7.4
		V253.2z M238.5,253.2v-9c0-8.2-5.9-13.9-14.1-13.9c-4.8,0-7.1,2.7-8.2,2.7c-0.3,0-0.6-0.3-0.6-0.9v-1c0-0.6-0.2-0.8-0.8-0.8h-4.9
		c-0.6,0-0.8,0.2-0.8,0.8v53.5c0,0.6,0.2,0.8,0.8,0.8h5.7c0.6,0,0.8-0.2,0.8-0.8v-19.4c0-0.6,0.2-0.9,0.7-0.9c0.7,0,3.2,2.7,7.9,2.7
		C232.6,267.1,238.5,261.2,238.5,253.2z"/>
	<path fill="#CACACA" d="M262.6,244.2h-13.1c-0.7,0-0.8-0.3-0.8-1.2c0-3.6,3.4-6.9,7.4-6.9c3.8,0,7.4,3.3,7.4,6.8
		C263.5,243.8,263.4,244.2,262.6,244.2z M270.8,249.1v-5.7c0-7.4-6.5-13.9-14.7-13.9s-14.7,6.5-14.7,13.9V254
		c0,8.3,5.8,13.9,14.7,13.9c4.3,0,7.8-1.1,10.2-3.4c2.5-2.3,3.4-4.4,3.4-5c0-0.2-0.2-0.4-0.5-0.6l-5.1-2.6c-0.2-0.1-0.3-0.2-0.5-0.2
		c-0.5,0-1.2,1.3-3,3.4c-0.9,1.1-2.5,1.8-4.5,1.8c-4.2,0-7.4-3.3-7.4-7.3v-3.3c0-0.6,0.2-0.8,0.8-0.8H270
		C270.6,249.9,270.8,249.7,270.8,249.1z"/>
	<path fill="#CACACA" d="M302.9,267.1h-5.7c-0.6,0-0.8-0.2-0.8-0.8v-22c0-4-3.2-7.4-7.3-7.4c-4.1,0-7.3,3.3-7.3,7.4v22
		c0,0.6-0.2,0.8-0.8,0.8h-5.7c-0.6,0-0.8-0.2-0.8-0.8v-35.1c0-0.6,0.2-0.8,0.8-0.8h4.9c0.6,0,0.8,0.2,0.8,0.8v1
		c0,0.6,0.2,0.9,0.6,0.9c1.1,0,3.3-2.7,8.2-2.7c8.2,0,14.1,5.6,14.1,13.9v22C303.7,266.8,303.5,267.1,302.9,267.1z"/>
	<path fill="#CACACA" d="M324.1,239.9c0,3.3,2.5,4.9,8.2,6.1c9.4,2,14.6,3.3,14.6,10.1c0,6.9-5.1,11.8-13,11.8h-2.5
		c-7.6,0-12.6-4.6-12.6-7.1c0-0.2,0.2-0.4,0.6-0.6l3.2-1.6c0.2-0.1,0.3-0.1,0.4-0.1c0.2,0,0.4,0.2,0.7,0.4c2.1,2.4,3.8,4.6,7.8,4.6
		h2.5c4.6,0,7.5-2.6,7.5-6c0-3-2.5-4.8-8-6c-9.5-2-14.6-2.9-14.6-10.1c0-6.7,5-11.4,12.6-11.4h2.5c7.4,0,12.5,4.5,12.5,6.9
		c0,0.2-0.2,0.4-0.6,0.6l-3.1,1.6c-0.2,0.1-0.2,0.1-0.3,0.1c-0.2,0-0.4-0.2-0.7-0.4c-2.3-2.4-4.2-4.4-7.8-4.4h-2.5
		C326.7,234.5,324.1,236.6,324.1,239.9z"/>
	<path fill="#CACACA" d="M373.3,254.5c0,4.7-3.8,8.7-8.7,8.7s-8.7-4-8.7-8.7v-11c0-4.8,3.7-8.7,8.7-8.7c4.9,0,8.7,4,8.7,8.7V254.5z
		 M378.8,254.5v-11c0-7.9-5.6-13.3-14.3-13.3c-8.7,0-14.1,5.2-14.1,13.3v11c0,8.1,5.5,13.4,14.1,13.4
		C373.2,267.9,378.8,262.5,378.8,254.5z"/>
	<path fill="#CACACA" d="M410.7,267.1h-3c-0.6,0-0.8-0.2-0.8-0.8v-3.5c0-0.6-0.3-0.9-0.7-0.9c-0.7,0-1.6,1.3-3,2.8
		c-1.6,1.6-4.1,2.5-6.8,2.5c-7.4,0-13.3-5.5-13.3-13.4v-21.9c0-0.6,0.2-0.8,0.8-0.8h3.8c0.6,0,0.8,0.2,0.8,0.8v21.9
		c0,4.7,3.8,8.7,8.7,8.7c5.1,0,8.8-3.9,8.8-8.7v-21.9c0-0.6,0.2-0.8,0.8-0.8h3.8c0.6,0,0.8,0.2,0.8,0.8v34.5
		C411.5,266.8,411.3,267.1,410.7,267.1z"/>
	<path fill="#CACACA" d="M436.3,236.8c-0.7,0-1.7-0.2-3.1-0.2c-5,0-8.7,3.8-8.7,8.6v21.1c0,0.6-0.2,0.8-0.8,0.8h-3.9
		c-0.6,0-0.8-0.2-0.8-0.8v-34.5c0-0.6,0.2-0.8,0.8-0.8h3c0.6,0,0.8,0.2,0.8,0.8v4.1c0,0.6,0.3,0.9,0.7,0.9c0.9,0,2.2-2,5.1-4.4
		c0.9-0.7,2.6-1.4,3.8-1.4h3c0.6,0,0.8,0.2,0.8,0.8v4.2C437,236.6,436.8,236.8,436.3,236.8z"/>
	<path fill="#CACACA" d="M463.6,260.7c0,2.6-5,7.2-12.7,7.2c-8.7,0-14.1-5.3-14.1-13.4v-11c0-8.1,5.5-13.3,14.1-13.3
		c7.6,0,12.7,4.3,12.7,7c0,0.2-0.2,0.5-0.6,0.7l-3.4,1.7c-0.2,0.1-0.2,0.1-0.3,0.1c-0.2,0-0.4-0.1-0.7-0.3c-2.5-2.3-4.1-4.5-7.8-4.5
		c-5,0-8.7,3.8-8.7,8.7v11c0,4.7,3.8,8.7,8.7,8.7c2,0,3.9-0.8,5.4-2.2c1.7-1.6,2.4-2.8,2.9-2.8c0.1,0,0.2,0,0.4,0.1l3.4,1.7
		C463.5,260.2,463.6,260.4,463.6,260.7z"/>
	<path fill="#CACACA" d="M489.4,244.6c0,0.6-0.2,0.8-0.8,0.8h-15.8c-0.6,0-0.8-0.2-0.8-0.8v-1.1c0-4.8,3.7-8.7,8.7-8.7
		c4.9,0,8.7,4,8.7,8.7V244.6z M495,248.5v-5c0-7-6.4-13.3-14.3-13.3c-4.2,0-7.6,1.5-10.3,4.3c-2.4,2.6-3.8,6-3.8,9v11
		c0,8.1,5.5,13.4,14.1,13.4c7.7,0,12.7-4.6,12.7-7.2c0-0.3-0.1-0.5-0.5-0.7l-3.4-1.7c-0.2-0.1-0.3-0.1-0.4-0.1
		c-0.5,0-1.2,1.1-2.9,2.8c-1.5,1.4-3.4,2.2-5.4,2.2c-4.9,0-8.7-4-8.7-8.7v-4.4c0-0.6,0.2-0.8,0.8-0.8h21.3
		C494.7,249.3,495,249,495,248.5z"/>
</g>
</svg>
