<?xml version="1.0" encoding="utf-8"?>
<!-- Generator: Adobe Illustrator 16.0.4, SVG Export Plug-In . SVG Version: 6.00 Build 0)  -->
<!DOCTYPE svg PUBLIC "-//W3C//DTD SVG 1.1//EN" "http://www.w3.org/Graphics/SVG/1.1/DTD/svg11.dtd">
<svg version="1.1"
	 id="svg3137" sodipodi:docname="Oer_logo-green.png" inkscape:version="0.48.2 r9819" xmlns:inkscape="http://www.inkscape.org/namespaces/inkscape" xmlns:rdf="http://www.w3.org/1999/02/22-rdf-syntax-ns#" xmlns:sodipodi="http://sodipodi.sourceforge.net/DTD/sodipodi-0.dtd" xmlns:svg="http://www.w3.org/2000/svg" xmlns:cc="http://creativecommons.org/ns#" xmlns:dc="http://purl.org/dc/elements/1.1/"
	 xmlns="http://www.w3.org/2000/svg" xmlns:xlink="http://www.w3.org/1999/xlink" x="0px" y="0px" width="651.568px"
	 height="291.848px" viewBox="25.952 28.957 651.568 291.848" enable-background="new 25.952 28.957 651.568 291.848"
	 xml:space="preserve">
<sodipodi:namedview  inkscape:window-x="1366" inkscape:current-layer="svg3137" fit-margin-bottom="0" fit-margin-right="0" inkscape:window-height="1026" inkscape:window-y="23" inkscape:window-maximized="1" inkscape:pageopacity="0" inkscape:pageshadow="2" inkscape:window-width="1680" id="namedview3139" inkscape:cx="111.37919" inkscape:zoom="0.50247117" fit-margin-top="0" fit-margin-left="0" guidetolerance="10" borderopacity="1" showgrid="false" inkscape:cy="419.93333" gridtolerance="10" pagecolor="#ffffff" bordercolor="#666666" objecttolerance="10">
	</sodipodi:namedview>
<g>
	<g>
		<path fill="#FFFFFF" d="M384.268,236.707c-0.48,0-0.961-0.104-1.407-0.306c-0.821-0.375-1.462-1.058-1.778-1.902l-22.581-60.218
			c-0.66-1.76,0.231-3.72,1.989-4.381c11.753-4.409,19.648-15.806,19.648-28.357c0-16.697-13.584-30.282-30.28-30.282
			c-16.697,0-30.282,13.584-30.282,30.282c0,12.551,7.896,23.948,19.647,28.357c1.761,0.661,2.65,2.621,1.991,4.381l-22.581,60.218
			c-0.317,0.845-0.956,1.527-1.778,1.902c-0.821,0.374-1.76,0.405-2.603,0.088c-39.349-14.763-65.787-52.918-65.787-94.946
			c0-55.908,45.484-101.392,101.393-101.392c55.907,0,101.392,45.484,101.392,101.392c0,42.028-26.438,80.183-65.788,94.946
			C385.078,236.635,384.673,236.707,384.268,236.707z M366.01,174.928l20.227,53.936c34.956-14.586,58.208-49.251,58.208-87.321
			c0-52.155-42.432-94.587-94.586-94.587c-52.156,0-94.588,42.432-94.588,94.587c0,38.07,23.252,72.735,58.208,87.321l20.227-53.936
			c-12.648-6.14-20.934-19.156-20.934-33.385c0-20.45,16.636-37.086,37.087-37.086c20.45,0,37.086,16.637,37.086,37.086
			C386.945,155.773,378.659,168.789,366.01,174.928z"/>
	</g>
	<path fill="#FFFFFF" d="M445.806,209.166v18.118h-3.785v-18.118h-6.209v-2.892h16.161v2.892H445.806z"/>
	<path fill="#FFFFFF" d="M475.56,216.915c-0.042-0.159-0.11-0.611-0.207-1.355c-0.085-0.606-0.159-1.111-0.224-1.516
		c-0.096,0.479-0.23,0.958-0.405,1.436c-0.176,0.479-0.396,0.968-0.663,1.467l-6.105,11.188l-6.105-11.428
		c-0.256-0.468-0.477-0.921-0.662-1.363c-0.186-0.441-0.349-0.875-0.487-1.3c-0.01,0.437-0.05,0.896-0.119,1.38
		c-0.068,0.484-0.173,0.991-0.312,1.522l-2.501,10.338h-3.492l5.516-21.903l6.888,13.272c0.105,0.213,0.269,0.562,0.485,1.046
		c0.219,0.484,0.481,1.087,0.79,1.811c0.224-0.606,0.572-1.372,1.051-2.298c0.128-0.256,0.224-0.446,0.287-0.575l6.728-13.256
		l5.646,21.903h-3.523L475.56,216.915z"/>
	<path fill="#FFFFFF" d="M214.103,281.588c0,4-3.267,7.348-7.349,7.348c-4.166,0-7.351-3.348-7.351-7.348v-10.615
		c0-4.003,3.267-7.351,7.351-7.351c4.082,0,7.349,3.348,7.349,7.351V281.588z M221.453,281.588v-10.615
		c0-8.248-5.799-13.883-14.698-13.883c-8.9,0-14.699,5.554-14.699,13.883v10.615c0,8.328,5.799,13.88,14.699,13.88
		C215.654,295.468,221.453,289.916,221.453,281.588z"/>
	<path fill="#FFFFFF" d="M247.583,280.77c0,4.001-3.184,7.35-7.35,7.35c-4.084,0-7.351-3.349-7.351-7.35v-8.981
		c0-4.003,3.267-7.351,7.351-7.351c4.166,0,7.35,3.348,7.35,7.351V280.77z M254.931,280.77v-8.981
		c0-8.247-5.879-13.883-14.127-13.883c-4.816,0-7.104,2.695-8.166,2.695c-0.326,0-0.571-0.326-0.571-0.898v-0.979
		c0-0.571-0.244-0.817-0.816-0.817h-4.898c-0.572,0-0.817,0.246-0.817,0.817v53.484c0,0.573,0.245,0.817,0.817,0.817h5.715
		c0.571,0,0.815-0.244,0.815-0.817v-19.353c0-0.571,0.247-0.898,0.654-0.898c0.735,0,3.185,2.695,7.922,2.695
		C249.052,294.652,254.931,288.772,254.931,280.77z"/>
	<path fill="#FFFFFF" d="M279.103,271.789h-13.066c-0.735,0-0.817-0.328-0.817-1.226c0-3.594,3.431-6.941,7.35-6.941
		c3.838,0,7.351,3.268,7.351,6.777C279.92,271.381,279.837,271.789,279.103,271.789z M287.269,276.687v-5.715
		c0-7.431-6.534-13.883-14.7-13.883s-14.698,6.452-14.698,13.883v10.615c0,8.328,5.799,13.88,14.698,13.88
		c4.327,0,7.759-1.143,10.208-3.428c2.45-2.287,3.428-4.411,3.428-4.981c0-0.245-0.161-0.408-0.488-0.572l-5.144-2.613
		c-0.165-0.08-0.327-0.163-0.492-0.163c-0.489,0-1.224,1.307-3.02,3.431c-0.898,1.061-2.531,1.795-4.492,1.795
		c-4.164,0-7.35-3.348-7.35-7.348v-3.267c0-0.572,0.246-0.816,0.817-0.816h20.415C287.022,277.505,287.269,277.259,287.269,276.687z
		"/>
	<path fill="#FFFFFF" d="M319.36,294.652h-5.716c-0.573,0-0.817-0.244-0.817-0.816v-22.047c0-4.003-3.185-7.351-7.349-7.351
		c-4.083,0-7.348,3.348-7.348,7.351v22.047c0,0.572-0.247,0.816-0.817,0.816h-5.718c-0.57,0-0.815-0.244-0.815-0.816v-35.112
		c0-0.571,0.245-0.817,0.815-0.817h4.899c0.571,0,0.818,0.246,0.818,0.817v0.979c0,0.572,0.244,0.898,0.57,0.898
		c1.062,0,3.349-2.695,8.166-2.695c8.246,0,14.127,5.636,14.127,13.883v22.047C320.177,294.408,319.932,294.652,319.36,294.652z"/>
	<path fill="#FFFFFF" d="M340.59,267.461c0,3.348,2.532,4.898,8.166,6.124c9.39,2.041,14.617,3.266,14.617,10.125
		c0,6.94-5.062,11.758-12.984,11.758h-2.53c-7.594,0-12.575-4.572-12.575-7.103c0-0.245,0.161-0.408,0.571-0.572l3.185-1.551
		c0.163-0.083,0.327-0.083,0.408-0.083c0.245,0,0.408,0.164,0.652,0.408c2.124,2.368,3.757,4.573,7.759,4.573h2.53
		c4.572,0,7.512-2.613,7.512-5.961c0-3.021-2.53-4.817-8.001-5.96c-9.474-1.961-14.616-2.94-14.616-10.127
		c0-6.696,4.981-11.35,12.575-11.35h2.53c7.431,0,12.493,4.492,12.493,6.941c0,0.244-0.244,0.408-0.571,0.571l-3.102,1.552
		c-0.165,0.082-0.245,0.082-0.327,0.082c-0.245,0-0.409-0.164-0.654-0.41c-2.285-2.449-4.164-4.408-7.839-4.408h-2.53
		C343.122,262.071,340.59,264.112,340.59,267.461z"/>
	<path fill="#FFFFFF" d="M389.748,282.077c0,4.736-3.839,8.737-8.737,8.737s-8.655-4.001-8.655-8.737v-11.024
		c0-4.817,3.674-8.656,8.655-8.656c4.898,0,8.737,4.003,8.737,8.656V282.077z M395.302,282.077v-11.024
		c0-7.92-5.635-13.31-14.291-13.31c-8.655,0-14.127,5.226-14.127,13.31v11.024c0,8.084,5.472,13.391,14.127,13.391
		C389.667,295.468,395.302,290.078,395.302,282.077z"/>
	<path fill="#FFFFFF" d="M427.148,294.652h-3.021c-0.571,0-0.817-0.244-0.817-0.816v-3.511c0-0.572-0.325-0.898-0.652-0.898
		c-0.735,0-1.551,1.307-3.021,2.775c-1.634,1.552-4.083,2.45-6.779,2.45c-7.431,0-13.31-5.47-13.31-13.392v-21.885
		c0-0.571,0.245-0.815,0.816-0.815h3.839c0.571,0,0.815,0.244,0.815,0.815v21.885c0,4.735,3.839,8.737,8.657,8.737
		c5.062,0,8.818-3.92,8.818-8.737v-21.885c0-0.571,0.244-0.815,0.815-0.815h3.839c0.571,0,0.816,0.244,0.816,0.815v34.46
		C427.965,294.408,427.719,294.652,427.148,294.652z"/>
	<path fill="#FFFFFF" d="M452.706,264.357c-0.652,0-1.715-0.245-3.104-0.245c-4.98,0-8.655,3.757-8.655,8.575v21.148
		c0,0.572-0.244,0.816-0.816,0.816h-3.92c-0.571,0-0.815-0.244-0.815-0.816v-34.46c0-0.571,0.244-0.815,0.815-0.815h3.022
		c0.571,0,0.816,0.244,0.816,0.815v4.083c0,0.571,0.327,0.898,0.653,0.898c0.897,0,2.204-2.041,5.144-4.41
		c0.898-0.734,2.613-1.387,3.756-1.387h3.022c0.572,0,0.816,0.244,0.816,0.815v4.166
		C453.441,264.194,453.278,264.357,452.706,264.357z"/>
	<path fill="#FFFFFF" d="M480.061,288.283c0,2.612-4.981,7.185-12.657,7.185c-8.655,0-14.126-5.307-14.126-13.391v-11.024
		c0-8.084,5.471-13.31,14.126-13.31c7.595,0,12.74,4.328,12.74,7.022c0,0.244-0.247,0.49-0.572,0.653l-3.431,1.715
		c-0.163,0.081-0.244,0.081-0.327,0.081c-0.244,0-0.407-0.081-0.651-0.325c-2.451-2.288-4.084-4.493-7.759-4.493
		c-4.981,0-8.655,3.839-8.655,8.656v11.024c0,4.736,3.757,8.737,8.655,8.737c1.961,0,3.92-0.816,5.39-2.205
		c1.714-1.633,2.449-2.775,2.939-2.775c0.081,0,0.245,0,0.408,0.081l3.431,1.714C479.98,287.793,480.061,287.957,480.061,288.283z"
		/>
	<path fill="#FFFFFF" d="M505.865,272.196c0,0.571-0.244,0.817-0.816,0.817h-15.761c-0.57,0-0.814-0.246-0.814-0.817v-1.144
		c0-4.817,3.675-8.656,8.654-8.656c4.9,0,8.737,4.003,8.737,8.656V272.196z M511.418,276.034v-4.981
		c0-7.022-6.369-13.31-14.29-13.31c-4.164,0-7.593,1.47-10.289,4.328c-2.449,2.613-3.837,5.961-3.837,8.981v11.024
		c0,8.084,5.472,13.391,14.126,13.391c7.677,0,12.658-4.572,12.658-7.185c0-0.326-0.083-0.49-0.491-0.654l-3.43-1.714
		c-0.162-0.081-0.326-0.081-0.408-0.081c-0.488,0-1.225,1.143-2.94,2.775c-1.468,1.389-3.429,2.205-5.389,2.205
		c-4.899,0-8.654-4.001-8.654-8.737v-4.409c0-0.571,0.244-0.817,0.814-0.817h21.314C511.174,276.85,511.418,276.606,511.418,276.034
		z"/>
</g>
</svg>
