<?xml version="1.0" encoding="utf-8"?>
<!-- Generator: Adobe Illustrator 16.0.4, SVG Export Plug-In . SVG Version: 6.00 Build 0)  -->
<!DOCTYPE svg PUBLIC "-//W3C//DTD SVG 1.1//EN" "http://www.w3.org/Graphics/SVG/1.1/DTD/svg11.dtd">
<svg version="1.1" id="Ebene_1" xmlns="http://www.w3.org/2000/svg" xmlns:xlink="http://www.w3.org/1999/xlink" x="0px" y="0px"
	 width="155.906px" height="62.361px" viewBox="0 0 155.906 62.361" enable-background="new 0 0 155.906 62.361"
	 xml:space="preserve">
<g>
	<polygon fill="#FFFFFF" points="0,0 155.906,0 155.906,62.361 0,62.361 0,0 	"/>
	<path d="M45.325,52.25c-0.512-0.213-1.405-0.477-2.334-0.723c0.031,0.514,0.095,0.984,0.184,1.402
		C43.894,52.74,44.612,52.514,45.325,52.25L45.325,52.25z M42.973,51.086c1.151,0.303,2.402,0.668,2.886,0.957
		c0.41-0.162,0.818-0.34,1.224-0.529c-0.731-0.395-2.458-0.939-4.094-1.398C42.971,50.451,42.966,50.775,42.973,51.086
		L42.973,51.086z M45.933,52.467c-0.018,0.012-0.037,0.018-0.056,0.023c-1.289,0.504-2.593,0.883-3.891,1.15
		c-0.02,0.008-0.041,0.014-0.064,0.014c-1.196,0.244-2.388,0.393-3.557,0.459c-0.019,0.004-0.04,0.006-0.062,0.004
		c-3.919,0.211-7.58-0.512-10.326-1.744l-0.094-0.043c-0.026-0.006-0.051-0.018-0.072-0.033c-4.671-2.164-6.779-6.002-2.21-9.096
		c-0.469-0.783-1.088-1.51-1.694-2.299c-0.194-0.252-0.391-0.516-0.585-0.789c-0.362,0.959-0.404,1.578,0.206,2.445
		c0.07,0.1,0.045,0.201-0.02,0.266l-3.258,3.902c-0.085,0.104-0.227,0.105-0.317,0.008C3.636,28.875,22.208,1.782,44.642,9.577
		c0.137,0.047,0.186,0.184,0.111,0.308l-3.518,5.83c-0.036,0.078-0.116,0.135-0.229,0.113c-1.093-0.204-1.762-0.141-2.232,0.312
		c1.012,0.176,2.057,0.443,3.132,0.808c0.96-1.06,1.979-2.042,3.079-2.921C45,14.012,45.017,14,45.035,13.99
		c0.057-0.036,0.115-0.04,0.167-0.023c0.052,0.014,0.099,0.049,0.127,0.109c0.01,0.018,0.017,0.037,0.021,0.057l2.023,5.938
		c0.021,0.047,0.025,0.1,0.008,0.149c-0.017,0.05-0.053,0.089-0.099,0.114c-0.065,0.043-0.131,0.086-0.196,0.131
		c0.416,1.252,3.315,9.972,4.209,12.32c0.28,0.736,0.897,2.074,0.908,2.854c0.011,0.795-0.54,1.162-1.672,1.242
		c-0.563,0.543-0.648,0.738-0.344,1.141c0.604,0.799,0.27,1.16-0.402,1.697c0.652,0.527,0.504,1.479,0.182,1.492
		c-0.471,0.023-0.651,0.17-0.918,0.545c2.067,2.033,0.358,3.768-2.394,4.35c-0.871,0.184-1.875,0.268-2.958,0.23
		c-0.001,0.01-0.004,0.021-0.008,0.033c-0.372,1.166-0.582,2.289-0.67,3.316c1.846,0.516,4.027,1.195,4.6,1.678
		c0.02,0.014,0.037,0.029,0.051,0.049c0.044,0.051,0.056,0.109,0.046,0.162c-0.006,0.055-0.035,0.105-0.09,0.143
		c-0.018,0.014-0.037,0.023-0.058,0.031C47.028,52.012,46.481,52.25,45.933,52.467L45.933,52.467z M26.63,44.488
		c0.011,0.023,0.018,0.047,0.02,0.074c0.132,0.5,0.191,1.041,0.152,1.643c1.282-0.879,0.964-2.346,0.586-3.039
		c-0.329,0.219-0.664,0.43-1.006,0.629C26.48,44.018,26.563,44.248,26.63,44.488L26.63,44.488z M26.295,44.904
		c-0.93,0.59-1.364,1.266-1.438,1.941c0.617-0.076,1.109-0.213,1.501-0.391C26.422,45.891,26.394,45.379,26.295,44.904
		L26.295,44.904z M24.856,47.27c0.029,0.271,0.111,0.539,0.239,0.797c2.939-0.051,5.143-2.979,3.555-5.816
		c-0.299,0.232-0.604,0.459-0.914,0.678C28.328,43.996,28.821,46.812,24.856,47.27L24.856,47.27z M25.339,48.479
		c0.235,0.336,0.545,0.65,0.905,0.928c4.291-1.215,5.183-4.811,3.491-8.062c-0.247,0.219-0.497,0.432-0.751,0.639
		C30.781,45.094,28.434,48.27,25.339,48.479L25.339,48.479z M26.685,49.713c0.407,0.256,0.859,0.469,1.333,0.621
		c5.284-2.672,4.011-8.127,2.804-10.008c-0.25,0.248-0.504,0.49-0.763,0.727C31.875,44.441,31.037,48.309,26.685,49.713
		L26.685,49.713z M43.195,28.222c1.845-0.716,4.114-1.056,5.884-0.501c-0.794-2.334-1.616-4.795-2.075-6.172
		c-0.017,2.376-1.097,4.618-3.424,5.562C43.492,27.492,43.366,27.862,43.195,28.222L43.195,28.222z M42.521,28.573
		c0.009-0.023,0.021-0.045,0.041-0.065c0.305-0.5,0.508-1.021,0.624-1.565c0-0.023,0.005-0.046,0.014-0.069
		c0.098-0.491,0.127-1,0.099-1.531c-0.006-0.023-0.007-0.047-0.004-0.071c-0.024-0.383-0.078-0.777-0.155-1.182
		c-0.266,0.306-0.528,0.617-0.785,0.934c0.117,1.357-0.201,2.835-1.634,4.156c0.044,0.421,0.047,0.833,0.012,1.234
		C41.529,29.833,42.113,29.221,42.521,28.573L42.521,28.573z M31.686,41.119c0.122-0.447,0.361-0.848,0.681-1.166
		c-0.148-0.309-0.241-0.625-0.306-0.928c-0.306,0.34-0.618,0.672-0.937,0.996C31.315,40.309,31.511,40.682,31.686,41.119
		L31.686,41.119z M32.701,39.672c0.254-0.18,0.541-0.314,0.85-0.395c-0.165-0.441-0.303-0.967-0.368-1.553
		c-0.252,0.307-0.507,0.607-0.767,0.902C32.471,38.973,32.552,39.328,32.701,39.672L32.701,39.672z M22.637,41.275
		c0-0.494,0.159-0.994,0.396-1.58c-1.046-1.557-2.006-3.539-2.322-6.514c-0.005-0.021-0.007-0.043-0.006-0.062
		c-0.029-0.283-0.052-0.574-0.069-0.875c-0.005-0.022-0.007-0.046-0.004-0.07c-0.005-0.1-0.01-0.201-0.014-0.303
		c-0.037-0.962,0.024-1.935,0.179-2.899c-0.002-0.028,0.003-0.055,0.012-0.08c0.048-0.287,0.104-0.575,0.167-0.86
		c0-0.029,0.005-0.058,0.019-0.086c0.623-2.721,1.98-5.33,3.951-7.422c0.014-0.021,0.031-0.038,0.051-0.053
		c0.581-0.612,1.216-1.179,1.9-1.69l0.013-0.009c1.071-0.799,2.265-1.463,3.568-1.952c0.014-0.008,0.028-0.013,0.042-0.016
		c1.597-0.594,3.358-0.927,5.263-0.927c0.111-0.011,0.223-0.011,0.332,0.003c0.703,0.014,1.425,0.073,2.165,0.182
		c0.329-0.423,0.734-0.645,1.229-0.727c-0.043-0.012-0.086-0.023-0.129-0.035c-0.008-0.001-0.016-0.003-0.023-0.005
		c-0.917-0.242-1.837-0.39-2.751-0.451l-0.014,0c-4.854-0.318-9.537,1.816-12.771,5.373l-0.01,0.01
		c-0.653,0.719-1.248,1.497-1.772,2.324c-0.005,0.011-0.012,0.021-0.019,0.031c-0.484,0.767-0.909,1.577-1.264,2.423
		c-0.002,0.006-0.004,0.01-0.007,0.016c-0.349,0.832-0.631,1.698-0.839,2.592c-0.804,3.453-0.501,7.316,1.362,11.228l0.003,0.004
		C21.66,39.654,22.113,40.465,22.637,41.275L22.637,41.275z M23.426,39.525c0.019,0.018,0.033,0.039,0.043,0.062
		c0.152,0.223,0.305,0.436,0.458,0.643c0.827-0.637,1.605-1.314,2.344-2.027c-0.364-0.188-0.696-0.355-1.001-0.527
		c-0.569,0.576-0.958,0.836-1.931,0.824c-0.159-0.002-0.246-0.123-0.198-0.273c0.174-0.559,0.01-1.891,0-2.582
		c-0.08-0.135-0.157-0.277-0.235-0.432c-0.259,0.055-0.576,0.072-1.007,0.072c-0.24,0-0.32-0.203-0.142-0.365
		c0.651-0.594,0.553-1.443,0.691-2.539c-0.373,0.197-1.047,0.666-1.307,0.852C21.462,36.109,22.403,38.016,23.426,39.525
		L23.426,39.525z M25.474,42.252c8.61-5.762,12.048-16.253,19.751-22.863l-1.139-0.229c-0.225-0.05-0.225-0.045-0.201-0.299
		l0.187-1.6c-7.116,7.268-11.088,19.193-19.152,24.254C25.111,41.762,25.298,42.006,25.474,42.252L25.474,42.252z M45.508,15.901
		c-0.325,0.285-0.644,0.579-0.957,0.882l-0.234,1.985l1.32,0.273c0.243-0.2,0.489-0.396,0.741-0.587l-0.176-0.516
		c-0.378,0.129-0.789-0.073-0.918-0.452c-0.129-0.377,0.073-0.788,0.451-0.917L45.508,15.901L45.508,15.901z M26.751,38.316
		c-0.809,0.797-1.663,1.551-2.57,2.25l0.061,0.08c0.14,0.182,0.279,0.359,0.417,0.535c4.238-2.645,7.336-7.248,10.414-12.12
		c2.667-4.223,5.469-8.945,9.105-12.503c0.015-0.021,0.033-0.039,0.053-0.052c0.368-0.357,0.744-0.704,1.13-1.036l-0.322-0.947
		c-1.405,1.151-2.683,2.483-3.868,3.916c-0.012,0.021-0.027,0.04-0.045,0.055c-2.28,2.767-4.221,5.902-6.082,8.818
		c-0.98,1.535-1.974,3.079-3.021,4.585c-0.01,0.023-0.024,0.042-0.041,0.059c-0.424,0.607-0.856,1.208-1.3,1.8
		c-0.011,0.021-0.025,0.041-0.041,0.055c-0.321,0.428-0.648,0.85-0.981,1.264c-0.01,0.02-0.024,0.037-0.042,0.053
		c-0.488,0.605-0.991,1.199-1.512,1.773c-0.012,0.021-0.029,0.039-0.047,0.053c-0.414,0.455-0.839,0.9-1.277,1.332L26.751,38.316
		L26.751,38.316z M26.59,37.895c0.315-0.312,0.624-0.633,0.925-0.955c-1.963-0.322-3.043-1.246-3.476-2.406
		c-0.27,0.258-0.483,0.434-0.728,0.549c0.062,0.119,0.125,0.232,0.188,0.34c0.024,0.023,0.044,0.053,0.054,0.092
		C24.346,36.812,25.229,37.191,26.59,37.895L26.59,37.895z M27.859,36.562c0.323-0.355,0.639-0.721,0.948-1.088
		c-3.602,1.023-5.878-4.657,0.276-6.989c-0.443-0.15-0.89-0.313-1.325-0.502C23.758,29.774,22.424,35.859,27.859,36.562
		L27.859,36.562z M29.363,34.795c0.315-0.393,0.625-0.791,0.928-1.195c0.145-1.062-0.129-2.246-1.455-2.839
		c-0.377,0.193-0.718,0.426-0.995,0.704c1.952,0.313,1.912,2.77,0.145,2.77c-1.465,0-1.389-1.814-0.754-2.699
		c0.009-0.017,0.02-0.032,0.033-0.044l0.005-0.007c0.313-0.404,0.781-0.793,1.435-1.125c0.021-0.016,0.045-0.029,0.072-0.036
		c0.477-0.234,1.048-0.439,1.726-0.601c0.024-0.011,0.051-0.017,0.079-0.018c0.407-0.094,0.852-0.171,1.337-0.23
		c-0.377-0.171-0.802-0.324-1.26-0.476c-0.298-0.098-0.605-0.195-0.919-0.296C23.104,30.846,25.769,36.697,29.363,34.795
		L29.363,34.795z M30.745,32.99c0.293-0.402,0.582-0.808,0.867-1.217c-0.082-0.412-0.531-1.161-1.072-1.622
		c-0.409,0.099-0.823,0.226-1.215,0.386C30.35,31.127,30.716,32.075,30.745,32.99L30.745,32.99z M31.912,31.338
		c0.306-0.445,0.606-0.894,0.905-1.346c-0.074-0.057-0.152-0.111-0.234-0.165c-0.429,0.036-0.971,0.101-1.546,0.213
		C31.415,30.427,31.739,30.918,31.912,31.338L31.912,31.338z M33.049,29.64c0.308-0.47,0.613-0.942,0.917-1.416
		c-1.16-0.27-3.268-0.123-4.582-0.095c0.457,0.158,0.928,0.31,1.407,0.468c0.706,0.234,1.377,0.483,1.926,0.818
		c0.023,0.009,0.044,0.022,0.062,0.038C32.873,29.513,32.963,29.575,33.049,29.64L33.049,29.64z M34.205,27.851
		c0.217-0.339,0.433-0.679,0.649-1.019c-1.288-0.402-3.371-0.307-4.639-0.288c-1.547,0.023-3.158,0.036-4.417-0.281
		c0.654,0.602,1.458,1.037,2.353,1.407c0.633,0.105,2.213,0.01,2.754-0.005C32.087,27.634,33.384,27.625,34.205,27.851
		L34.205,27.851z M35.086,26.465c0.183-0.288,0.366-0.576,0.55-0.864c-1.651-0.633-4.305-0.415-6.004-0.411
		c-1.973,0.006-3.961-0.127-5.243-1.209c0.196,0.649,0.478,1.189,0.829,1.649c1.89,0.81,5.529,0.391,7.757,0.501
		C33.763,26.17,34.493,26.261,35.086,26.465L35.086,26.465z M35.867,25.24c0.19-0.298,0.381-0.594,0.573-0.89
		c-0.658-0.216-1.299-0.361-1.934-0.459c-0.022,0-0.043-0.003-0.064-0.009c-1.667-0.25-3.296-0.173-5.088-0.161
		c-1.112,0.008-2.152-0.033-3.065-0.323c-0.024-0.003-0.049-0.01-0.071-0.023c-0.753-0.251-1.417-0.677-1.962-1.392
		c-0.054,0.071-0.108,0.143-0.162,0.215c0.02,0.349,0.057,0.675,0.11,0.981c1.067,1.396,3.125,1.597,5.429,1.591
		C31.452,24.765,34.131,24.533,35.867,25.24L35.867,25.24z M40.988,18.006c0.202-0.242,0.407-0.481,0.614-0.716
		c-1.109-0.367-2.186-0.626-3.226-0.787c-0.017,0-0.035-0.003-0.051-0.008c-0.485-0.074-0.962-0.125-1.431-0.157
		c0.182,0.257,0.289,0.628,0.267,1.138c0.248,0.211,0.39,0.515,0.422,0.83c0.306-0.188,0.714-0.247,1.175-0.096
		C39.138,17.362,40.275,17.231,40.988,18.006L40.988,18.006z M17.658,43.1l3.853-2.881c-0.184-0.328-0.356-0.658-0.518-0.988
		l-3.22,1.965c-0.24,0.145-0.459-0.215-0.22-0.359l3.257-1.986c-0.13-0.279-0.252-0.559-0.366-0.836l-4.424,2.057
		C16.476,41.094,17.021,42.105,17.658,43.1L17.658,43.1z M21.721,40.588l-3.832,2.863c0.641,0.961,1.371,1.902,2.193,2.82
		l3.006-3.602c-0.199-0.271-0.39-0.543-0.573-0.814l-2.867,2.836c-0.2,0.197-0.496-0.102-0.296-0.299l2.927-2.896
		C22.083,41.193,21.897,40.891,21.721,40.588L21.721,40.588z M15.853,39.684l4.435-2.062c-0.112-0.289-0.216-0.58-0.312-0.869
		l-3.623,1.064c-0.269,0.078-0.388-0.324-0.119-0.404l3.613-1.061c-0.121-0.393-0.227-0.785-0.318-1.174l-4.809,1.025
		C14.992,37.371,15.367,38.535,15.853,39.684L15.853,39.684z M14.629,35.793l4.809-1.027c-0.072-0.342-0.133-0.684-0.184-1.021
		l-3.829,0.359c-0.279,0.025-0.318-0.393-0.04-0.42l3.812-0.357c-0.047-0.383-0.082-0.764-0.103-1.141l-4.912-0.098
		C14.222,33.318,14.368,34.557,14.629,35.793L14.629,35.793z M14.174,31.666l4.903,0.098c-0.01-0.334-0.01-0.667,0-0.998
		l-3.794-0.419c-0.279-0.03-0.233-0.449,0.046-0.418l3.766,0.416c0.023-0.421,0.063-0.838,0.118-1.251l-4.784-0.985
		C14.247,29.279,14.16,30.469,14.174,31.666L14.174,31.666z M14.496,27.694l4.776,0.983c0.051-0.326,0.113-0.647,0.183-0.967
		l-3.659-1.152c-0.268-0.083-0.141-0.485,0.126-0.401l3.628,1.142c0.079-0.317,0.166-0.63,0.262-0.94l-4.401-2.197
		C15.013,25.311,14.705,26.491,14.496,27.694L14.496,27.694z M15.555,23.763l4.39,2.192c0.107-0.316,0.224-0.628,0.349-0.935
		l-3.355-2.057c-0.239-0.146-0.019-0.505,0.22-0.358l3.301,2.022c0.146-0.335,0.304-0.665,0.471-0.988l-3.948-3.01
		C16.43,21.636,15.953,22.685,15.555,23.763L15.555,23.763z M17.189,20.257l3.941,3.005c0.143-0.261,0.293-0.519,0.45-0.771
		l-2.893-2.775c-0.203-0.194,0.089-0.498,0.292-0.304l2.832,2.716c0.212-0.325,0.435-0.642,0.668-0.951l-3.323-3.838
		C18.429,18.262,17.771,19.238,17.189,20.257L17.189,20.257z M19.423,17.005l3.317,3.832c0.208-0.263,0.424-0.519,0.646-0.769
		l-2.459-3.38c-0.165-0.227,0.175-0.475,0.34-0.248l2.408,3.311c0.246-0.262,0.499-0.517,0.759-0.763l-2.618-4.51
		C20.957,15.261,20.157,16.106,19.423,17.005L19.423,17.005z M22.137,14.192l2.614,4.503c0.227-0.204,0.458-0.401,0.695-0.594
		l-1.723-3.966c-0.112-0.258,0.274-0.425,0.386-0.167l1.679,3.864c0.301-0.231,0.608-0.452,0.922-0.663l-1.721-5.116
		C23.983,12.693,23.029,13.409,22.137,14.192L22.137,14.192z M25.357,11.826l1.718,5.106c0.271-0.172,0.547-0.336,0.827-0.492
		l-1.017-4.264c-0.065-0.273,0.344-0.371,0.409-0.098l0.991,4.154c0.3-0.157,0.604-0.305,0.913-0.444l-0.743-5.533
		C27.378,10.7,26.343,11.227,25.357,11.826L25.357,11.826z M28.859,10.095l0.741,5.52c0.322-0.134,0.648-0.258,0.978-0.372
		l-0.151-4.605c-0.009-0.28,0.412-0.295,0.421-0.014l0.147,4.483c0.323-0.102,0.649-0.193,0.979-0.273l0.393-5.771
		C31.157,9.31,29.985,9.658,28.859,10.095L28.859,10.095z M32.793,8.979l-0.391,5.755c0.377-0.082,0.757-0.149,1.141-0.202
		l0.695-4.548c0.042-0.278,0.458-0.213,0.416,0.063l-0.678,4.431c0.296-0.032,0.594-0.057,0.893-0.072l1.489-5.78
		C35.141,8.646,33.95,8.768,32.793,8.979L32.793,8.979z M36.793,8.624l-1.486,5.768c0.382-0.009,0.765-0.002,1.149,0.02l1.422-4.551
		c0.084-0.268,0.486-0.142,0.402,0.126l-1.393,4.454c0.349,0.03,0.698,0.071,1.048,0.126l2.424-5.646
		C39.151,8.723,37.96,8.627,36.793,8.624L36.793,8.624z M40.787,8.993l-2.424,5.646c0.315,0.059,0.63,0.127,0.945,0.207l2.379-4.592
		c0.129-0.249,0.503-0.056,0.374,0.193l-2.337,4.51c0.412,0.116,0.823,0.251,1.232,0.405l3.302-5.471
		C43.088,9.497,41.93,9.201,40.787,8.993L40.787,8.993z M33.152,21.678c-0.004,0.036-0.016,0.07-0.038,0.099
		c-0.023,0.032-0.056,0.057-0.101,0.071c-0.011,0.004-0.023,0.007-0.035,0.009c-0.354,0.061-0.712,0.052-1.059-0.017
		c-0.037,0.035-0.079,0.067-0.124,0.099c0.059,0.399,0.264,0.913,0.737,1.356c0.316,0.01,0.631,0.027,0.946,0.052l0.952-3.863
		c-1.035-0.305-1.321-2.141,0.073-2.378c-0.011-0.301,0.117-0.569,0.321-0.779c-0.734,0.045-1.445,0.143-2.131,0.287l0.196,2.157
		c0.007,0.024,0.009,0.049,0.006,0.074l0.021,0.229c0.025,0.279-0.394,0.317-0.419,0.038l-0.015-0.166l-0.867-0.616
		c-0.226,0.191-0.369,0.477-0.369,0.796c0,0.575,0.467,1.042,1.042,1.042c0.104,0,0.206-0.016,0.301-0.045l-0.007-0.075
		c-0.026-0.279,0.394-0.317,0.419-0.039l0.02,0.216c0.003,0.016,0.005,0.033,0.004,0.049l0.123,1.35
		C33.154,21.647,33.154,21.663,33.152,21.678L33.152,21.678z M31.587,17.794l0.124,0.088c0.015,0.007,0.028,0.017,0.042,0.029
		l0.682,0.484l-0.153-1.687c-0.549,0.132-1.081,0.295-1.594,0.485c-1.093,1.192-0.968,2.451-0.288,3.294
		c0.023,0.019,0.042,0.042,0.056,0.067c0.539,0.623,1.389,0.999,2.26,0.914l-0.084-0.918c-0.109,0.026-0.223,0.041-0.34,0.041
		c-0.808,0-1.463-0.656-1.463-1.463c0-0.416,0.173-0.791,0.452-1.057C31.175,17.898,31.387,17.652,31.587,17.794L31.587,17.794z
		 M31.401,21.691c-0.452-0.173-0.865-0.448-1.194-0.794c-1.48,0.378-2.764-0.727-3.251-1.631c-0.508,0.392-0.987,0.817-1.436,1.268
		l0.901,0.239c0.011,0.002,0.022,0.005,0.032,0.008l0.229,0.061c0.033,0.003,0.067,0.013,0.098,0.034
		c0.033,0.02,0.057,0.044,0.073,0.072C27.923,22.159,30.448,22.179,31.401,21.691L31.401,21.691z M29.909,20.528
		c-0.562-0.819-0.696-1.914,0.007-3.022c-0.938,0.413-1.813,0.919-2.619,1.504C27.676,19.777,28.73,20.706,29.909,20.528
		L29.909,20.528z M26.552,21.243l-0.045-0.012c-0.146,0.431-0.128,1.334-0.015,1.789c0.821,0.245,1.777,0.287,2.859,0.279
		c0.9-0.005,1.758-0.027,2.598-0.016c-0.302-0.38-0.468-0.782-0.543-1.136C30.151,22.648,27.671,22.485,26.552,21.243L26.552,21.243
		z M27.268,27.756c-0.271-0.134-0.535-0.281-0.791-0.444c-0.313,0.226-0.599,0.446-0.859,0.662c-0.01,0.01-0.021,0.018-0.032,0.026
		c-0.554,0.462-0.994,0.902-1.343,1.322c-0.009,0.014-0.02,0.026-0.031,0.038c-0.158,0.191-0.297,0.378-0.42,0.561
		c-0.009,0.022-0.022,0.043-0.04,0.06c-0.495,0.755-0.713,1.433-0.825,2.037c-0.166,0.895-0.041,2.049-0.561,2.836
		c0.815-0.049,1.042-0.277,1.539-0.777C23.407,31.838,25.015,28.959,27.268,27.756L27.268,27.756z M27.518,31.855
		c-0.056,0.082-0.106,0.167-0.151,0.256c-0.484,0.963,0.037,1.701,0.619,1.701C29.299,33.812,29.222,31.929,27.518,31.855
		L27.518,31.855z M25.138,27.83c-0.732-0.572-1.518-1.208-1.926-2.045c-0.069,0.474-0.031,0.92,0.067,1.33l0.004,0.015
		c0.17,0.695,0.514,1.288,0.802,1.733C24.378,28.529,24.727,28.185,25.138,27.83L25.138,27.83z M23.592,36.311
		c0.04,0.588,0.094,1.18,0.012,1.762c0.674-0.047,0.928-0.244,1.295-0.615C24.406,37.15,23.983,36.805,23.592,36.311L23.592,36.311z
		 M23.383,28.498l-0.82,0.414l0.428,0.914c0.158-0.077,0.319-0.138,0.48-0.18c0.1-0.147,0.21-0.296,0.331-0.447
		C23.652,28.968,23.511,28.734,23.383,28.498L23.383,28.498z M21.057,32.233c0.01,0.173,0.022,0.345,0.037,0.511
		c0.396-0.285,1.039-0.722,1.429-0.841c0.098-0.509,0.267-1.066,0.59-1.668c-0.033,0.017-0.066,0.035-0.1,0.053
		c-0.009,0.007-0.019,0.012-0.029,0.017C22.078,30.824,21.246,31.87,21.057,32.233L21.057,32.233z M21.138,29.564
		c-0.081,0.654-0.117,1.31-0.107,1.963c0.206-0.266,0.478-0.575,0.792-0.868L21.138,29.564L21.138,29.564z M21.378,28.159
		c-0.055,0.252-0.105,0.507-0.147,0.761l0.913,1.458c0.153-0.125,0.313-0.242,0.477-0.346c-0.733-1.519-0.879-1.2,0.573-1.913
		c-0.107-0.231-0.199-0.466-0.271-0.706C22.533,27.506,21.905,27.788,21.378,28.159L21.378,28.159z M23.716,22.729
		c-1.007,1.485-1.749,3.134-2.195,4.837c0.453-0.267,0.937-0.474,1.301-0.561c-0.126-0.644-0.097-1.321,0.167-2.052
		c0.091-0.251,0.365-0.225,0.406,0.04c0.166,1.071,1.238,1.91,2.073,2.56c0.2-0.163,0.413-0.327,0.64-0.493
		C24.895,26.173,23.955,24.859,23.716,22.729L23.716,22.729z M25.188,20.881c-0.229,0.246-0.45,0.499-0.662,0.759
		c0.421,0.583,0.925,0.967,1.508,1.215c-0.076-0.518-0.081-1.259,0.067-1.733L25.188,20.881L25.188,20.881z M37.016,19.489
		c-0.19,0.114-0.429,0.185-0.717,0.191c-0.082,0.596-0.156,1.233-0.069,1.824l1.115-1.202
		C37.146,20.036,37.041,19.756,37.016,19.489L37.016,19.489z M35.772,20.768c-0.315-0.078-0.625-0.176-0.755-0.502
		c-0.058-0.145,0.407-0.072,0.464-0.071c0.113,0.003,0.226-0.025,0.337-0.059c0.025-0.232,0.057-0.464,0.089-0.692
		c0-0.005,0.001-0.012,0.002-0.019c0.011-0.075,0.021-0.149,0.031-0.225c0.038-0.277,0.453-0.222,0.418,0.055
		c1.241-0.104,0.997-1.877-0.316-1.617c-0.275,0.055-0.357-0.358-0.082-0.413c0.298-0.059,0.556-0.046,0.774,0.019
		c-0.137-1.78-2.866-0.693-1.312,0.642c0.213,0.183-0.061,0.502-0.274,0.319c-0.272-0.234-0.448-0.466-0.546-0.688
		c-0.968,0.148-0.687,1.34-0.071,1.555l0.009-0.035c0.067-0.272,0.476-0.171,0.409,0.101l-0.054,0.218
		c-0.001,0.009-0.004,0.018-0.006,0.028l-0.987,4.003c0.172,0.018,0.345,0.04,0.518,0.064l1.455-1.568
		C35.786,21.521,35.762,21.146,35.772,20.768L35.772,20.768z M37.851,22.218c-0.232-0.323-0.315-0.796-0.237-1.17
		c0.04-0.193,0.229,0.114,0.265,0.15c0.13,0.127,0.308,0.205,0.482,0.279c0.354-0.508,0.714-1.011,1.083-1.506
		c0.416-0.559,0.839-1.105,1.274-1.638c-0.721-0.862-1.944-0.372-1.604,0.992c0.068,0.272-0.341,0.374-0.408,0.102
		c-0.076-0.304-0.091-0.575-0.06-0.811c-0.922-0.305-1.581,0.535-1.007,1.372c0.191-0.181,0.483,0.098,0.296,0.299l-1.639,1.767
		c-0.014,0.021-0.032,0.04-0.052,0.055l-1.322,1.425c0.576,0.104,1.159,0.25,1.757,0.452C37.063,23.392,37.454,22.802,37.851,22.218
		L37.851,22.218z M35.992,34.012c2.339-0.93,3.08-2.825,2.968-4.334c-0.532,0.783-1.046,1.549-1.542,2.276
		C36.948,32.641,36.475,33.328,35.992,34.012L35.992,34.012z M40.646,28.665c0.994-1.011,1.311-2.099,1.31-3.143
		c-0.544,0.691-1.07,1.401-1.579,2.114C40.495,27.983,40.584,28.326,40.646,28.665L40.646,28.665z M43.685,24.896
		c1.066-0.875,1.487-1.775,1.459-2.879c-0.57,0.522-1.122,1.087-1.657,1.68C43.578,24.105,43.645,24.505,43.685,24.896
		L43.685,24.896z M43.67,26.612c2.166-1.018,3.09-3.342,2.886-5.769c-0.344,0.256-0.68,0.529-1.011,0.815
		c0.142,1.492-0.388,2.656-1.822,3.743C43.74,25.816,43.724,26.219,43.67,26.612L43.67,26.612z M35.147,35.674
		c0.008-0.002,0.017-0.002,0.025-0.002c2.472-0.24,4.635-2.207,5.08-4.822c0-0.022,0.003-0.043,0.011-0.064
		c0.083-0.524,0.096-1.072,0.03-1.637c-0.006-0.021-0.009-0.043-0.007-0.065c-0.043-0.334-0.113-0.673-0.214-1.016
		c-0.256,0.365-0.509,0.729-0.757,1.092c0.361,1.859-0.494,4.46-3.744,5.445c-0.263,0.367-0.529,0.73-0.798,1.092
		C34.897,35.691,35.022,35.686,35.147,35.674L35.147,35.674z M26.058,43.148c0.006,0.01,0.013,0.021,0.018,0.031
		c0.043,0.078,0.085,0.154,0.126,0.234c0.826-0.484,1.611-1.031,2.359-1.629c0.009-0.01,0.02-0.018,0.031-0.025
		c0.352-0.281,0.697-0.576,1.034-0.879c0.015-0.018,0.031-0.033,0.05-0.045c0.342-0.311,0.677-0.631,1.004-0.959
		c0.012-0.016,0.027-0.031,0.042-0.043c0.438-0.441,0.865-0.9,1.281-1.371c0.015-0.029,0.036-0.053,0.062-0.07
		c0.374-0.426,0.74-0.861,1.099-1.307c0.014-0.029,0.034-0.055,0.059-0.072c0.32-0.398,0.634-0.803,0.944-1.213
		c0.028-0.037,0.025-0.027,0.051-0.066c0.347-0.461,0.689-0.928,1.027-1.398c0.011-0.025,0.026-0.049,0.049-0.068
		c1.237-1.729,2.417-3.509,3.604-5.232c0.01-0.02,0.022-0.039,0.038-0.054c0.337-0.491,0.676-0.975,1.017-1.454
		c0.01-0.021,0.023-0.041,0.041-0.057c0.586-0.821,1.178-1.621,1.784-2.386c0.057-0.072,0.114-0.144,0.172-0.215
		c0.012-0.024,0.029-0.044,0.048-0.06c0.354-0.44,0.714-0.867,1.08-1.279c0.012-0.02,0.027-0.035,0.044-0.049
		c0.654-0.734,1.33-1.42,2.034-2.042c0.014-0.017,0.031-0.032,0.051-0.044c0.442-0.389,0.897-0.751,1.365-1.084
		c0.016-0.016,0.036-0.03,0.056-0.04l0.067-0.047c0.011-0.009,0.022-0.018,0.035-0.024c0.065-0.045,0.131-0.09,0.197-0.135
		l-0.405-1.19c-0.229,0.177-0.454,0.357-0.676,0.541c-0.011,0.012-0.023,0.021-0.037,0.03c-7.931,6.586-11.321,17.275-20.095,23.152
		C25.836,42.779,25.951,42.963,26.058,43.148L26.058,43.148z M33.629,43.926c0.014,0.002,0.028,0.006,0.042,0.012
		c0.173,0.043,0.354,0.066,0.541,0.066c0.529,0,1.014-0.186,1.393-0.498c0.007-0.006,0.016-0.014,0.024-0.02
		c0.476-0.402,0.779-1.004,0.779-1.678c0-0.324-0.071-0.635-0.198-0.912c-0.009-0.016-0.018-0.031-0.023-0.049
		c-0.356-0.73-1.106-1.234-1.975-1.234c-0.109,0-0.217,0.01-0.322,0.023l-0.045,0.008c-0.401,0.068-0.765,0.244-1.06,0.496
		l-0.031,0.027c-0.453,0.402-0.738,0.988-0.738,1.641C32.015,42.82,32.699,43.672,33.629,43.926L33.629,43.926z M27.946,51.896
		c0.642-0.227,1.213-0.504,1.721-0.82c0.018-0.018,0.039-0.031,0.063-0.041c0.482-0.305,0.905-0.645,1.276-1.008
		c0.012-0.016,0.026-0.031,0.043-0.043c1.881-1.867,2.391-4.307,2.338-5.691c-0.433-0.143-0.816-0.396-1.116-0.727
		c0.227,2.443-0.555,5.391-4.11,7.166c-0.056,0.031-0.07,0.037-0.098,0.039c-0.022,0.002-0.068,0-0.126-0.02
		c-0.604-0.191-1.222-0.51-1.771-0.91c-0.069-0.049-0.069-0.051-0.13-0.1c-0.489-0.379-0.914-0.824-1.209-1.309
		c-0.036-0.057-0.033-0.051-0.055-0.092c-0.702-1.227-0.57-2.676,1.413-3.863c-0.098-0.316-0.226-0.617-0.377-0.908
		C21.762,46.334,23.365,49.762,27.946,51.896L27.946,51.896z M29.853,51.457c-0.412,0.254-0.864,0.482-1.358,0.682
		c2.422,1.021,5.539,1.648,8.877,1.594C35.404,52.969,31.745,51.816,29.853,51.457L29.853,51.457z M31.235,50.393
		c-0.27,0.258-0.565,0.504-0.888,0.736c2.356,0.514,6.539,1.887,8.011,2.562c0.9-0.051,1.813-0.152,2.733-0.311
		C38.573,52.525,33.49,50.938,31.235,50.393L31.235,50.393z M33.811,44.395c0.021,1.428-0.493,3.773-2.232,5.648
		c2.621,0.662,8.269,2.443,10.344,3.182c0.281-0.059,0.563-0.123,0.845-0.191c-0.36-1.66-0.326-4.092,0.498-6.719
		c-2.352-0.15-5.031-0.873-7.507-2.396c-0.433,0.318-0.968,0.508-1.547,0.508C34.075,44.426,33.941,44.414,33.811,44.395
		L33.811,44.395z M33.796,38.676c0.054,0.188,0.114,0.365,0.177,0.527c0.079-0.006,0.158-0.01,0.238-0.01
		c0.416,0,0.808,0.096,1.157,0.27C35.633,38.334,34.521,37.844,33.796,38.676L33.796,38.676z M35.304,36.568
		c1.874,0.453,2.515,2.861,1.333,4.26c0.123,0.303,0.19,0.635,0.19,0.98c0,0.707-0.281,1.35-0.736,1.82
		c3.669,2.215,7.768,2.637,10.477,2.064c2.833-0.598,3.849-2.111,2.062-3.754c-0.31-0.285,0.536-1.062,1.158-1.135
		c0.07-0.406-0.098-0.693-0.425-0.861c-0.882-0.082-2.292,0.381-3.225,0.592c-0.055,0.182-0.326,0.23-0.397,0.006
		c-0.097-0.303,0.155-0.768,0.221-0.91c0.128-0.273,0.476-0.092,0.354,0.15c-0.043,0.086-0.09,0.199-0.125,0.309
		c0.967-0.227,2.251-0.639,3.169-0.568c0.227-0.166,0.832-0.617,0.703-0.92c-0.036-0.082-0.103-0.182-0.211-0.326
		c-0.452-0.598-0.26-1.018,0.157-1.465c-0.719-0.092-1.633,0.002-2.117,0.541c-0.279,0.311-0.778-0.518-0.832-0.639
		c-0.2-0.457-0.167-1.064,0.53-1.711c0.206-0.191,0.492,0.119,0.286,0.309c-0.557,0.516-0.699,1.072-0.174,1.6l0.024,0.023
		c0.752-0.619,1.805-0.686,2.726-0.471l0.008,0.002h0.007c1.594-0.105,1.468-0.748,1.054-1.918
		c-0.163-0.461-0.384-0.998-0.618-1.611c-0.341-0.896-0.975-2.723-1.652-4.708c-1.816-0.713-4.399-0.295-6.384,0.587
		c-0.489,0.769-1.208,1.491-2.21,2.164c-0.487,2.712-2.708,4.771-5.286,5.093L35.304,36.568L35.304,36.568z M34.889,36.504
		l0.053-0.395c-0.16,0.008-0.322,0.01-0.484,0.004c-0.292,0.383-0.587,0.764-0.889,1.139c0.014,0.326,0.052,0.637,0.109,0.928
		c0.893-0.742,2.591-0.248,2.065,1.508c0.272,0.195,0.504,0.443,0.683,0.727c0.931-1.314,0.135-3.439-1.686-3.498
		c-0.28-0.008-0.267-0.43,0.013-0.42C34.798,36.496,34.844,36.5,34.889,36.504L34.889,36.504z M42.196,21.409
		c0,0.216-0.176,0.392-0.393,0.392c-0.217,0-0.393-0.176-0.393-0.392c0-0.217,0.176-0.394,0.393-0.394
		C42.021,21.016,42.196,21.192,42.196,21.409L42.196,21.409z M43.328,20.108c0,0.241-0.196,0.438-0.438,0.438
		s-0.438-0.196-0.438-0.438c0-0.242,0.196-0.439,0.438-0.439S43.328,19.866,43.328,20.108L43.328,20.108z M41.1,22.811
		c0,0.192-0.155,0.347-0.347,0.347c-0.192,0-0.347-0.155-0.347-0.347c0-0.191,0.155-0.347,0.347-0.347
		C40.945,22.464,41.1,22.619,41.1,22.811L41.1,22.811z M29.075,19.026c0,0.235-0.19,0.425-0.425,0.425
		c-0.234,0-0.424-0.19-0.424-0.425c0-0.234,0.19-0.424,0.424-0.424C28.885,18.602,29.075,18.792,29.075,19.026L29.075,19.026z
		 M34.211,42.566c0.418,0,0.757-0.34,0.757-0.758s-0.339-0.756-0.757-0.756c-0.417,0-0.757,0.338-0.757,0.756
		S33.793,42.566,34.211,42.566L34.211,42.566z M34.211,42.986c-0.65,0-1.178-0.527-1.178-1.178s0.527-1.178,1.178-1.178
		s1.178,0.527,1.178,1.178S34.861,42.986,34.211,42.986L34.211,42.986z M50.452,36.463c0.005,0,0.01,0,0.015,0.002H50.46
		L50.452,36.463L50.452,36.463z M44.235,31.727c-0.111-0.356-0.156-0.753-0.125-1.244c-0.641,0.194-1.245,0.482-1.762,0.889
		c0.194,0.064,0.473,0.145,0.819,0.215C43.474,31.648,43.833,31.701,44.235,31.727L44.235,31.727z M44.541,30.368
		c-0.053,0.593,0.006,1.012,0.146,1.376c0.269,0.002,0.552-0.008,0.848-0.036c-0.137-0.192-0.233-0.451-0.257-0.737
		c-0.024-0.278,0.021-0.542,0.116-0.75C45.107,30.253,44.822,30.303,44.541,30.368L44.541,30.368z M46.303,29.736
		c0.283-0.016,0.586-0.035,0.779,0.02c0.139,0.009,0.203,0.113,0.2,0.215c-0.004,0.253-0.329,0.386-0.582,0.469
		c0.041,0.121,0.069,0.253,0.081,0.392c0.05,0.593-0.199,1.125-0.578,1.21c-0.013,0.004-0.027,0.008-0.041,0.01
		c-0.466,0.076-1.008,0.115-1.567,0.105c-0.04,0.012-0.083,0.012-0.124-0.002c-0.87-0.025-1.771-0.167-2.483-0.46
		c-0.014,0.015-0.02,0.022-0.02,0.022c-0.18,0.216-0.503-0.053-0.323-0.27c0.004-0.005,0.048-0.058,0.134-0.14
		c0.012-0.015,0.026-0.028,0.042-0.039C42.286,30.834,43.69,29.771,46.303,29.736L46.303,29.736z"/>
	<path fill="none" stroke="#000000" stroke-width="0.0292" stroke-miterlimit="3.8637" d="M45.325,52.25
		c-0.512-0.213-1.405-0.477-2.334-0.723c0.031,0.514,0.095,0.984,0.184,1.402C43.894,52.74,44.612,52.514,45.325,52.25L45.325,52.25
		z M42.973,51.086c1.151,0.303,2.402,0.668,2.886,0.957c0.41-0.162,0.818-0.34,1.224-0.529c-0.731-0.395-2.458-0.939-4.094-1.398
		C42.971,50.451,42.966,50.775,42.973,51.086L42.973,51.086z M45.933,52.467c-0.018,0.012-0.037,0.018-0.056,0.023
		c-1.289,0.504-2.593,0.883-3.891,1.15c-0.02,0.008-0.041,0.014-0.064,0.014c-1.196,0.244-2.388,0.393-3.557,0.459
		c-0.019,0.004-0.04,0.006-0.062,0.004c-3.919,0.211-7.58-0.512-10.326-1.744l-0.094-0.043c-0.026-0.006-0.051-0.018-0.072-0.033
		c-4.671-2.164-6.779-6.002-2.21-9.096c-0.469-0.783-1.088-1.51-1.694-2.299c-0.194-0.252-0.391-0.516-0.585-0.789
		c-0.362,0.959-0.404,1.578,0.206,2.445c0.07,0.1,0.045,0.201-0.02,0.266l-3.258,3.902c-0.085,0.104-0.227,0.105-0.317,0.008
		C3.636,28.875,22.208,1.782,44.642,9.577c0.137,0.047,0.186,0.184,0.111,0.308l-3.518,5.83c-0.036,0.078-0.116,0.135-0.229,0.113
		c-1.093-0.204-1.762-0.141-2.232,0.312c1.012,0.176,2.057,0.443,3.132,0.808c0.96-1.06,1.979-2.042,3.079-2.921
		C45,14.012,45.017,14,45.035,13.99c0.057-0.036,0.115-0.04,0.167-0.023c0.052,0.014,0.099,0.049,0.127,0.109
		c0.01,0.018,0.017,0.037,0.021,0.057l2.023,5.938c0.021,0.047,0.025,0.1,0.008,0.149c-0.017,0.05-0.053,0.089-0.099,0.114
		c-0.065,0.043-0.131,0.086-0.196,0.131c0.416,1.252,3.315,9.972,4.209,12.32c0.28,0.736,0.897,2.074,0.908,2.854
		c0.011,0.795-0.54,1.162-1.672,1.242c-0.563,0.543-0.648,0.738-0.344,1.141c0.604,0.799,0.27,1.16-0.402,1.697
		c0.652,0.527,0.504,1.479,0.182,1.492c-0.471,0.023-0.651,0.17-0.918,0.545c2.067,2.033,0.358,3.768-2.394,4.35
		c-0.871,0.184-1.875,0.268-2.958,0.23c-0.001,0.01-0.004,0.021-0.008,0.033c-0.372,1.166-0.582,2.289-0.67,3.316
		c1.846,0.516,4.027,1.195,4.6,1.678c0.02,0.014,0.037,0.029,0.051,0.049c0.044,0.051,0.056,0.109,0.046,0.162
		c-0.006,0.055-0.035,0.105-0.09,0.143c-0.018,0.014-0.037,0.023-0.058,0.031C47.028,52.012,46.481,52.25,45.933,52.467
		L45.933,52.467z M26.63,44.488c0.011,0.023,0.018,0.047,0.02,0.074c0.132,0.5,0.191,1.041,0.152,1.643
		c1.282-0.879,0.964-2.346,0.586-3.039c-0.329,0.219-0.664,0.43-1.006,0.629C26.48,44.018,26.563,44.248,26.63,44.488L26.63,44.488z
		 M26.295,44.904c-0.93,0.59-1.364,1.266-1.438,1.941c0.617-0.076,1.109-0.213,1.501-0.391
		C26.422,45.891,26.394,45.379,26.295,44.904L26.295,44.904z M24.856,47.27c0.029,0.271,0.111,0.539,0.239,0.797
		c2.939-0.051,5.143-2.979,3.555-5.816c-0.299,0.232-0.604,0.459-0.914,0.678C28.328,43.996,28.821,46.812,24.856,47.27
		L24.856,47.27z M25.339,48.479c0.235,0.336,0.545,0.65,0.905,0.928c4.291-1.215,5.183-4.811,3.491-8.062
		c-0.247,0.219-0.497,0.432-0.751,0.639C30.781,45.094,28.434,48.27,25.339,48.479L25.339,48.479z M26.685,49.713
		c0.407,0.256,0.859,0.469,1.333,0.621c5.284-2.672,4.011-8.127,2.804-10.008c-0.25,0.248-0.504,0.49-0.763,0.727
		C31.875,44.441,31.037,48.309,26.685,49.713L26.685,49.713z M43.195,28.222c1.845-0.716,4.114-1.056,5.884-0.501
		c-0.794-2.334-1.616-4.795-2.075-6.172c-0.017,2.376-1.097,4.618-3.424,5.562C43.492,27.492,43.366,27.862,43.195,28.222
		L43.195,28.222z M42.521,28.573c0.009-0.023,0.021-0.045,0.041-0.065c0.305-0.5,0.508-1.021,0.624-1.565
		c0-0.023,0.005-0.046,0.014-0.069c0.098-0.491,0.127-1,0.099-1.531c-0.006-0.023-0.007-0.047-0.004-0.071
		c-0.024-0.383-0.078-0.777-0.155-1.182c-0.266,0.306-0.528,0.617-0.785,0.934c0.117,1.357-0.201,2.835-1.634,4.156
		c0.044,0.421,0.047,0.833,0.012,1.234C41.529,29.833,42.113,29.221,42.521,28.573L42.521,28.573z M31.686,41.119
		c0.122-0.447,0.361-0.848,0.681-1.166c-0.148-0.309-0.241-0.625-0.306-0.928c-0.306,0.34-0.618,0.672-0.937,0.996
		C31.315,40.309,31.511,40.682,31.686,41.119L31.686,41.119z M32.701,39.672c0.254-0.18,0.541-0.314,0.85-0.395
		c-0.165-0.441-0.303-0.967-0.368-1.553c-0.252,0.307-0.507,0.607-0.767,0.902C32.471,38.973,32.552,39.328,32.701,39.672
		L32.701,39.672z M22.637,41.275c0-0.494,0.159-0.994,0.396-1.58c-1.046-1.557-2.006-3.539-2.322-6.514
		c-0.005-0.021-0.007-0.043-0.006-0.062c-0.029-0.283-0.052-0.574-0.069-0.875c-0.005-0.022-0.007-0.046-0.004-0.07
		c-0.005-0.1-0.01-0.201-0.014-0.303c-0.037-0.962,0.024-1.935,0.179-2.899c-0.002-0.028,0.003-0.055,0.012-0.08
		c0.048-0.287,0.104-0.575,0.167-0.86c0-0.029,0.005-0.058,0.019-0.086c0.623-2.721,1.98-5.33,3.951-7.422
		c0.014-0.021,0.031-0.038,0.051-0.053c0.581-0.612,1.216-1.179,1.9-1.69l0.013-0.009c1.071-0.799,2.265-1.463,3.568-1.952
		c0.014-0.008,0.028-0.013,0.042-0.016c1.597-0.594,3.358-0.927,5.263-0.927c0.111-0.011,0.223-0.011,0.332,0.003
		c0.703,0.014,1.425,0.073,2.165,0.182c0.329-0.423,0.734-0.645,1.229-0.727c-0.043-0.012-0.086-0.023-0.129-0.035
		c-0.008-0.001-0.016-0.003-0.023-0.005c-0.917-0.242-1.837-0.39-2.751-0.451l-0.014,0c-4.854-0.318-9.537,1.816-12.771,5.373
		l-0.01,0.01c-0.653,0.719-1.248,1.497-1.772,2.324c-0.005,0.011-0.012,0.021-0.019,0.031c-0.484,0.767-0.909,1.577-1.264,2.423
		c-0.002,0.006-0.004,0.01-0.007,0.016c-0.349,0.832-0.631,1.698-0.839,2.592c-0.804,3.453-0.501,7.316,1.362,11.228l0.003,0.004
		C21.66,39.654,22.113,40.465,22.637,41.275L22.637,41.275z M23.426,39.525c0.019,0.018,0.033,0.039,0.043,0.062
		c0.152,0.223,0.305,0.436,0.458,0.643c0.827-0.637,1.605-1.314,2.344-2.027c-0.364-0.188-0.696-0.355-1.001-0.527
		c-0.569,0.576-0.958,0.836-1.931,0.824c-0.159-0.002-0.246-0.123-0.198-0.273c0.174-0.559,0.01-1.891,0-2.582
		c-0.08-0.135-0.157-0.277-0.235-0.432c-0.259,0.055-0.576,0.072-1.007,0.072c-0.24,0-0.32-0.203-0.142-0.365
		c0.651-0.594,0.553-1.443,0.691-2.539c-0.373,0.197-1.047,0.666-1.307,0.852C21.462,36.109,22.403,38.016,23.426,39.525
		L23.426,39.525z M25.474,42.252c8.61-5.762,12.048-16.253,19.751-22.863l-1.139-0.229c-0.225-0.05-0.225-0.045-0.201-0.299
		l0.187-1.6c-7.116,7.268-11.088,19.193-19.152,24.254C25.111,41.762,25.298,42.006,25.474,42.252L25.474,42.252z M45.508,15.901
		c-0.325,0.285-0.644,0.579-0.957,0.882l-0.234,1.985l1.32,0.273c0.243-0.2,0.489-0.396,0.741-0.587l-0.176-0.516
		c-0.378,0.129-0.789-0.073-0.918-0.452c-0.129-0.377,0.073-0.788,0.451-0.917L45.508,15.901L45.508,15.901z M26.751,38.316
		c-0.809,0.797-1.663,1.551-2.57,2.25l0.061,0.08c0.14,0.182,0.279,0.359,0.417,0.535c4.238-2.645,7.336-7.248,10.414-12.12
		c2.667-4.223,5.469-8.945,9.105-12.503c0.015-0.021,0.033-0.039,0.053-0.052c0.368-0.357,0.744-0.704,1.13-1.036l-0.322-0.947
		c-1.405,1.151-2.683,2.483-3.868,3.916c-0.012,0.021-0.027,0.04-0.045,0.055c-2.28,2.767-4.221,5.902-6.082,8.818
		c-0.98,1.535-1.974,3.079-3.021,4.585c-0.01,0.023-0.024,0.042-0.041,0.059c-0.424,0.607-0.856,1.208-1.3,1.8
		c-0.011,0.021-0.025,0.041-0.041,0.055c-0.321,0.428-0.648,0.85-0.981,1.264c-0.01,0.02-0.024,0.037-0.042,0.053
		c-0.488,0.605-0.991,1.199-1.512,1.773c-0.012,0.021-0.029,0.039-0.047,0.053c-0.414,0.455-0.839,0.9-1.277,1.332L26.751,38.316
		L26.751,38.316z M26.59,37.895c0.315-0.312,0.624-0.633,0.925-0.955c-1.963-0.322-3.043-1.246-3.476-2.406
		c-0.27,0.258-0.483,0.434-0.728,0.549c0.062,0.119,0.125,0.232,0.188,0.34c0.024,0.023,0.044,0.053,0.054,0.092
		C24.346,36.812,25.229,37.191,26.59,37.895L26.59,37.895z M27.859,36.562c0.323-0.355,0.639-0.721,0.948-1.088
		c-3.602,1.023-5.878-4.657,0.276-6.989c-0.443-0.15-0.89-0.313-1.325-0.502C23.758,29.774,22.424,35.859,27.859,36.562
		L27.859,36.562z M29.363,34.795c0.315-0.393,0.625-0.791,0.928-1.195c0.145-1.062-0.129-2.246-1.455-2.839
		c-0.377,0.193-0.718,0.426-0.995,0.704c1.952,0.313,1.912,2.77,0.145,2.77c-1.465,0-1.389-1.814-0.754-2.699
		c0.009-0.017,0.02-0.032,0.033-0.044l0.005-0.007c0.313-0.404,0.781-0.793,1.435-1.125c0.021-0.016,0.045-0.029,0.072-0.036
		c0.477-0.234,1.048-0.439,1.726-0.601c0.024-0.011,0.051-0.017,0.079-0.018c0.407-0.094,0.852-0.171,1.337-0.23
		c-0.377-0.171-0.802-0.324-1.26-0.476c-0.298-0.098-0.605-0.195-0.919-0.296C23.104,30.846,25.769,36.697,29.363,34.795
		L29.363,34.795z M30.745,32.99c0.293-0.402,0.582-0.808,0.867-1.217c-0.082-0.412-0.531-1.161-1.072-1.622
		c-0.409,0.099-0.823,0.226-1.215,0.386C30.35,31.127,30.716,32.075,30.745,32.99L30.745,32.99z M31.912,31.338
		c0.306-0.445,0.606-0.894,0.905-1.346c-0.074-0.057-0.152-0.111-0.234-0.165c-0.429,0.036-0.971,0.101-1.546,0.213
		C31.415,30.427,31.739,30.918,31.912,31.338L31.912,31.338z M33.049,29.64c0.308-0.47,0.613-0.942,0.917-1.416
		c-1.16-0.27-3.268-0.123-4.582-0.095c0.457,0.158,0.928,0.31,1.407,0.468c0.706,0.234,1.377,0.483,1.926,0.818
		c0.023,0.009,0.044,0.022,0.062,0.038C32.873,29.513,32.963,29.575,33.049,29.64L33.049,29.64z M34.205,27.851
		c0.217-0.339,0.433-0.679,0.649-1.019c-1.288-0.402-3.371-0.307-4.639-0.288c-1.547,0.023-3.158,0.036-4.417-0.281
		c0.654,0.602,1.458,1.037,2.353,1.407c0.633,0.105,2.213,0.01,2.754-0.005C32.087,27.634,33.384,27.625,34.205,27.851
		L34.205,27.851z M35.086,26.465c0.183-0.288,0.366-0.576,0.55-0.864c-1.651-0.633-4.305-0.415-6.004-0.411
		c-1.973,0.006-3.961-0.127-5.243-1.209c0.196,0.649,0.478,1.189,0.829,1.649c1.89,0.81,5.529,0.391,7.757,0.501
		C33.763,26.17,34.493,26.261,35.086,26.465L35.086,26.465z M35.867,25.24c0.19-0.298,0.381-0.594,0.573-0.89
		c-0.658-0.216-1.299-0.361-1.934-0.459c-0.022,0-0.043-0.003-0.064-0.009c-1.667-0.25-3.296-0.173-5.088-0.161
		c-1.112,0.008-2.152-0.033-3.065-0.323c-0.024-0.003-0.049-0.01-0.071-0.023c-0.753-0.251-1.417-0.677-1.962-1.392
		c-0.054,0.071-0.108,0.143-0.162,0.215c0.02,0.349,0.057,0.675,0.11,0.981c1.067,1.396,3.125,1.597,5.429,1.591
		C31.452,24.765,34.131,24.533,35.867,25.24L35.867,25.24z M40.988,18.006c0.202-0.242,0.407-0.481,0.614-0.716
		c-1.109-0.367-2.186-0.626-3.226-0.787c-0.017,0-0.035-0.003-0.051-0.008c-0.485-0.074-0.962-0.125-1.431-0.157
		c0.182,0.257,0.289,0.628,0.267,1.138c0.248,0.211,0.39,0.515,0.422,0.83c0.306-0.188,0.714-0.247,1.175-0.096
		C39.138,17.362,40.275,17.231,40.988,18.006L40.988,18.006z M17.658,43.1l3.853-2.881c-0.184-0.328-0.356-0.658-0.518-0.988
		l-3.22,1.965c-0.24,0.145-0.459-0.215-0.22-0.359l3.257-1.986c-0.13-0.279-0.252-0.559-0.366-0.836l-4.424,2.057
		C16.476,41.094,17.021,42.105,17.658,43.1L17.658,43.1z M21.721,40.588l-3.832,2.863c0.641,0.961,1.371,1.902,2.193,2.82
		l3.006-3.602c-0.199-0.271-0.39-0.543-0.573-0.814l-2.867,2.836c-0.2,0.197-0.496-0.102-0.296-0.299l2.927-2.896
		C22.083,41.193,21.897,40.891,21.721,40.588L21.721,40.588z M15.853,39.684l4.435-2.062c-0.112-0.289-0.216-0.58-0.312-0.869
		l-3.623,1.064c-0.269,0.078-0.388-0.324-0.119-0.404l3.613-1.061c-0.121-0.393-0.227-0.785-0.318-1.174l-4.809,1.025
		C14.992,37.371,15.367,38.535,15.853,39.684L15.853,39.684z M14.629,35.793l4.809-1.027c-0.072-0.342-0.133-0.684-0.184-1.021
		l-3.829,0.359c-0.279,0.025-0.318-0.393-0.04-0.42l3.812-0.357c-0.047-0.383-0.082-0.764-0.103-1.141l-4.912-0.098
		C14.222,33.318,14.368,34.557,14.629,35.793L14.629,35.793z M14.174,31.666l4.903,0.098c-0.01-0.334-0.01-0.667,0-0.998
		l-3.794-0.419c-0.279-0.03-0.233-0.449,0.046-0.418l3.766,0.416c0.023-0.421,0.063-0.838,0.118-1.251l-4.784-0.985
		C14.247,29.279,14.16,30.469,14.174,31.666L14.174,31.666z M14.496,27.694l4.776,0.983c0.051-0.326,0.113-0.647,0.183-0.967
		l-3.659-1.152c-0.268-0.083-0.141-0.485,0.126-0.401l3.628,1.142c0.079-0.317,0.166-0.63,0.262-0.94l-4.401-2.197
		C15.013,25.311,14.705,26.491,14.496,27.694L14.496,27.694z M15.555,23.763l4.39,2.192c0.107-0.316,0.224-0.628,0.349-0.935
		l-3.355-2.057c-0.239-0.146-0.019-0.505,0.22-0.358l3.301,2.022c0.146-0.335,0.304-0.665,0.471-0.988l-3.948-3.01
		C16.43,21.636,15.953,22.685,15.555,23.763L15.555,23.763z M17.189,20.257l3.941,3.005c0.143-0.261,0.293-0.519,0.45-0.771
		l-2.893-2.775c-0.203-0.194,0.089-0.498,0.292-0.304l2.832,2.716c0.212-0.325,0.435-0.642,0.668-0.951l-3.323-3.838
		C18.429,18.262,17.771,19.238,17.189,20.257L17.189,20.257z M19.423,17.005l3.317,3.832c0.208-0.263,0.424-0.519,0.646-0.769
		l-2.459-3.38c-0.165-0.227,0.175-0.475,0.34-0.248l2.408,3.311c0.246-0.262,0.499-0.517,0.759-0.763l-2.618-4.51
		C20.957,15.261,20.157,16.106,19.423,17.005L19.423,17.005z M22.137,14.192l2.614,4.503c0.227-0.204,0.458-0.401,0.695-0.594
		l-1.723-3.966c-0.112-0.258,0.274-0.425,0.386-0.167l1.679,3.864c0.301-0.231,0.608-0.452,0.922-0.663l-1.721-5.116
		C23.983,12.693,23.029,13.409,22.137,14.192L22.137,14.192z M25.357,11.826l1.718,5.106c0.271-0.172,0.547-0.336,0.827-0.492
		l-1.017-4.264c-0.065-0.273,0.344-0.371,0.409-0.098l0.991,4.154c0.3-0.157,0.604-0.305,0.913-0.444l-0.743-5.533
		C27.378,10.7,26.343,11.227,25.357,11.826L25.357,11.826z M28.859,10.095l0.741,5.52c0.322-0.134,0.648-0.258,0.978-0.372
		l-0.151-4.605c-0.009-0.28,0.412-0.295,0.421-0.014l0.147,4.483c0.323-0.102,0.649-0.193,0.979-0.273l0.393-5.771
		C31.157,9.31,29.985,9.658,28.859,10.095L28.859,10.095z M32.793,8.979l-0.391,5.755c0.377-0.082,0.757-0.149,1.141-0.202
		l0.695-4.548c0.042-0.278,0.458-0.213,0.416,0.063l-0.678,4.431c0.296-0.032,0.594-0.057,0.893-0.072l1.489-5.78
		C35.141,8.646,33.95,8.768,32.793,8.979L32.793,8.979z M36.793,8.624l-1.486,5.768c0.382-0.009,0.765-0.002,1.149,0.02l1.422-4.551
		c0.084-0.268,0.486-0.142,0.402,0.126l-1.393,4.454c0.349,0.03,0.698,0.071,1.048,0.126l2.424-5.646
		C39.151,8.723,37.96,8.627,36.793,8.624L36.793,8.624z M40.787,8.993l-2.424,5.646c0.315,0.059,0.63,0.127,0.945,0.207l2.379-4.592
		c0.129-0.249,0.503-0.056,0.374,0.193l-2.337,4.51c0.412,0.116,0.823,0.251,1.232,0.405l3.302-5.471
		C43.088,9.497,41.93,9.201,40.787,8.993L40.787,8.993z M33.152,21.678c-0.004,0.036-0.016,0.07-0.038,0.099
		c-0.023,0.032-0.056,0.057-0.101,0.071c-0.011,0.004-0.023,0.007-0.035,0.009c-0.354,0.061-0.712,0.052-1.059-0.017
		c-0.037,0.035-0.079,0.067-0.124,0.099c0.059,0.399,0.264,0.913,0.737,1.356c0.316,0.01,0.631,0.027,0.946,0.052l0.952-3.863
		c-1.035-0.305-1.321-2.141,0.073-2.378c-0.011-0.301,0.117-0.569,0.321-0.779c-0.734,0.045-1.445,0.143-2.131,0.287l0.196,2.157
		c0.007,0.024,0.009,0.049,0.006,0.074l0.021,0.229c0.025,0.279-0.394,0.317-0.419,0.038l-0.015-0.166l-0.867-0.616
		c-0.226,0.191-0.369,0.477-0.369,0.796c0,0.575,0.467,1.042,1.042,1.042c0.104,0,0.206-0.016,0.301-0.045l-0.007-0.075
		c-0.026-0.279,0.394-0.317,0.419-0.039l0.02,0.216c0.003,0.016,0.005,0.033,0.004,0.049l0.123,1.35
		C33.154,21.647,33.154,21.663,33.152,21.678L33.152,21.678z M31.587,17.794l0.124,0.088c0.015,0.007,0.028,0.017,0.042,0.029
		l0.682,0.484l-0.153-1.687c-0.549,0.132-1.081,0.295-1.594,0.485c-1.093,1.192-0.968,2.451-0.288,3.294
		c0.023,0.019,0.042,0.042,0.056,0.067c0.539,0.623,1.389,0.999,2.26,0.914l-0.084-0.918c-0.109,0.026-0.223,0.041-0.34,0.041
		c-0.808,0-1.463-0.656-1.463-1.463c0-0.416,0.173-0.791,0.452-1.057C31.175,17.898,31.387,17.652,31.587,17.794L31.587,17.794z
		 M31.401,21.691c-0.452-0.173-0.865-0.448-1.194-0.794c-1.48,0.378-2.764-0.727-3.251-1.631c-0.508,0.392-0.987,0.817-1.436,1.268
		l0.901,0.239c0.011,0.002,0.022,0.005,0.032,0.008l0.229,0.061c0.033,0.003,0.067,0.013,0.098,0.034
		c0.033,0.02,0.057,0.044,0.073,0.072C27.923,22.159,30.448,22.179,31.401,21.691L31.401,21.691z M29.909,20.528
		c-0.562-0.819-0.696-1.914,0.007-3.022c-0.938,0.413-1.813,0.919-2.619,1.504C27.676,19.777,28.73,20.706,29.909,20.528
		L29.909,20.528z M26.552,21.243l-0.045-0.012c-0.146,0.431-0.128,1.334-0.015,1.789c0.821,0.245,1.777,0.287,2.859,0.279
		c0.9-0.005,1.758-0.027,2.598-0.016c-0.302-0.38-0.468-0.782-0.543-1.136C30.151,22.648,27.671,22.485,26.552,21.243L26.552,21.243
		z M27.268,27.756c-0.271-0.134-0.535-0.281-0.791-0.444c-0.313,0.226-0.599,0.446-0.859,0.662c-0.01,0.01-0.021,0.018-0.032,0.026
		c-0.554,0.462-0.994,0.902-1.343,1.322c-0.009,0.014-0.02,0.026-0.031,0.038c-0.158,0.191-0.297,0.378-0.42,0.561
		c-0.009,0.022-0.022,0.043-0.04,0.06c-0.495,0.755-0.713,1.433-0.825,2.037c-0.166,0.895-0.041,2.049-0.561,2.836
		c0.815-0.049,1.042-0.277,1.539-0.777C23.407,31.838,25.015,28.959,27.268,27.756L27.268,27.756z M27.518,31.855
		c-0.056,0.082-0.106,0.167-0.151,0.256c-0.484,0.963,0.037,1.701,0.619,1.701C29.299,33.812,29.222,31.929,27.518,31.855
		L27.518,31.855z M25.138,27.83c-0.732-0.572-1.518-1.208-1.926-2.045c-0.069,0.474-0.031,0.92,0.067,1.33l0.004,0.015
		c0.17,0.695,0.514,1.288,0.802,1.733C24.378,28.529,24.727,28.185,25.138,27.83L25.138,27.83z M23.592,36.311
		c0.04,0.588,0.094,1.18,0.012,1.762c0.674-0.047,0.928-0.244,1.295-0.615C24.406,37.15,23.983,36.805,23.592,36.311L23.592,36.311z
		 M23.383,28.498l-0.82,0.414l0.428,0.914c0.158-0.077,0.319-0.138,0.48-0.18c0.1-0.147,0.21-0.296,0.331-0.447
		C23.652,28.968,23.511,28.734,23.383,28.498L23.383,28.498z M21.057,32.233c0.01,0.173,0.022,0.345,0.037,0.511
		c0.396-0.285,1.039-0.722,1.429-0.841c0.098-0.509,0.267-1.066,0.59-1.668c-0.033,0.017-0.066,0.035-0.1,0.053
		c-0.009,0.007-0.019,0.012-0.029,0.017C22.078,30.824,21.246,31.87,21.057,32.233L21.057,32.233z M21.138,29.564
		c-0.081,0.654-0.117,1.31-0.107,1.963c0.206-0.266,0.478-0.575,0.792-0.868L21.138,29.564L21.138,29.564z M21.378,28.159
		c-0.055,0.252-0.105,0.507-0.147,0.761l0.913,1.458c0.153-0.125,0.313-0.242,0.477-0.346c-0.733-1.519-0.879-1.2,0.573-1.913
		c-0.107-0.231-0.199-0.466-0.271-0.706C22.533,27.506,21.905,27.788,21.378,28.159L21.378,28.159z M23.716,22.729
		c-1.007,1.485-1.749,3.134-2.195,4.837c0.453-0.267,0.937-0.474,1.301-0.561c-0.126-0.644-0.097-1.321,0.167-2.052
		c0.091-0.251,0.365-0.225,0.406,0.04c0.166,1.071,1.238,1.91,2.073,2.56c0.2-0.163,0.413-0.327,0.64-0.493
		C24.895,26.173,23.955,24.859,23.716,22.729L23.716,22.729z M25.188,20.881c-0.229,0.246-0.45,0.499-0.662,0.759
		c0.421,0.583,0.925,0.967,1.508,1.215c-0.076-0.518-0.081-1.259,0.067-1.733L25.188,20.881L25.188,20.881z M37.016,19.489
		c-0.19,0.114-0.429,0.185-0.717,0.191c-0.082,0.596-0.156,1.233-0.069,1.824l1.115-1.202
		C37.146,20.036,37.041,19.756,37.016,19.489L37.016,19.489z M35.772,20.768c-0.315-0.078-0.625-0.176-0.755-0.502
		c-0.058-0.145,0.407-0.072,0.464-0.071c0.113,0.003,0.226-0.025,0.337-0.059c0.025-0.232,0.057-0.464,0.089-0.692
		c0-0.005,0.001-0.012,0.002-0.019c0.011-0.075,0.021-0.149,0.031-0.225c0.038-0.277,0.453-0.222,0.418,0.055
		c1.241-0.104,0.997-1.877-0.316-1.617c-0.275,0.055-0.357-0.358-0.082-0.413c0.298-0.059,0.556-0.046,0.774,0.019
		c-0.137-1.78-2.866-0.693-1.312,0.642c0.213,0.183-0.061,0.502-0.274,0.319c-0.272-0.234-0.448-0.466-0.546-0.688
		c-0.968,0.148-0.687,1.34-0.071,1.555l0.009-0.035c0.067-0.272,0.476-0.171,0.409,0.101l-0.054,0.218
		c-0.001,0.009-0.004,0.018-0.006,0.028l-0.987,4.003c0.172,0.018,0.345,0.04,0.518,0.064l1.455-1.568
		C35.786,21.521,35.762,21.146,35.772,20.768L35.772,20.768z M37.851,22.218c-0.232-0.323-0.315-0.796-0.237-1.17
		c0.04-0.193,0.229,0.114,0.265,0.15c0.13,0.127,0.308,0.205,0.482,0.279c0.354-0.508,0.714-1.011,1.083-1.506
		c0.416-0.559,0.839-1.105,1.274-1.638c-0.721-0.862-1.944-0.372-1.604,0.992c0.068,0.272-0.341,0.374-0.408,0.102
		c-0.076-0.304-0.091-0.575-0.06-0.811c-0.922-0.305-1.581,0.535-1.007,1.372c0.191-0.181,0.483,0.098,0.296,0.299l-1.639,1.767
		c-0.014,0.021-0.032,0.04-0.052,0.055l-1.322,1.425c0.576,0.104,1.159,0.25,1.757,0.452C37.063,23.392,37.454,22.802,37.851,22.218
		L37.851,22.218z M35.992,34.012c2.339-0.93,3.08-2.825,2.968-4.334c-0.532,0.783-1.046,1.549-1.542,2.276
		C36.948,32.641,36.475,33.328,35.992,34.012L35.992,34.012z M40.646,28.665c0.994-1.011,1.311-2.099,1.31-3.143
		c-0.544,0.691-1.07,1.401-1.579,2.114C40.495,27.983,40.584,28.326,40.646,28.665L40.646,28.665z M43.685,24.896
		c1.066-0.875,1.487-1.775,1.459-2.879c-0.57,0.522-1.122,1.087-1.657,1.68C43.578,24.105,43.645,24.505,43.685,24.896
		L43.685,24.896z M43.67,26.612c2.166-1.018,3.09-3.342,2.886-5.769c-0.344,0.256-0.68,0.529-1.011,0.815
		c0.142,1.492-0.388,2.656-1.822,3.743C43.74,25.816,43.724,26.219,43.67,26.612L43.67,26.612z M35.147,35.674
		c0.008-0.002,0.017-0.002,0.025-0.002c2.472-0.24,4.635-2.207,5.08-4.822c0-0.022,0.003-0.043,0.011-0.064
		c0.083-0.524,0.096-1.072,0.03-1.637c-0.006-0.021-0.009-0.043-0.007-0.065c-0.043-0.334-0.113-0.673-0.214-1.016
		c-0.256,0.365-0.509,0.729-0.757,1.092c0.361,1.859-0.494,4.46-3.744,5.445c-0.263,0.367-0.529,0.73-0.798,1.092
		C34.897,35.691,35.022,35.686,35.147,35.674L35.147,35.674z M26.058,43.148c0.006,0.01,0.013,0.021,0.018,0.031
		c0.043,0.078,0.085,0.154,0.126,0.234c0.826-0.484,1.611-1.031,2.359-1.629c0.009-0.01,0.02-0.018,0.031-0.025
		c0.352-0.281,0.697-0.576,1.034-0.879c0.015-0.018,0.031-0.033,0.05-0.045c0.342-0.311,0.677-0.631,1.004-0.959
		c0.012-0.016,0.027-0.031,0.042-0.043c0.438-0.441,0.865-0.9,1.281-1.371c0.015-0.029,0.036-0.053,0.062-0.07
		c0.374-0.426,0.74-0.861,1.099-1.307c0.014-0.029,0.034-0.055,0.059-0.072c0.32-0.398,0.634-0.803,0.944-1.213
		c0.028-0.037,0.025-0.027,0.051-0.066c0.347-0.461,0.689-0.928,1.027-1.398c0.011-0.025,0.026-0.049,0.049-0.068
		c1.237-1.729,2.417-3.509,3.604-5.232c0.01-0.02,0.022-0.039,0.038-0.054c0.337-0.491,0.676-0.975,1.017-1.454
		c0.01-0.021,0.023-0.041,0.041-0.057c0.586-0.821,1.178-1.621,1.784-2.386c0.057-0.072,0.114-0.144,0.172-0.215
		c0.012-0.024,0.029-0.044,0.048-0.06c0.354-0.44,0.714-0.867,1.08-1.279c0.012-0.02,0.027-0.035,0.044-0.049
		c0.654-0.734,1.33-1.42,2.034-2.042c0.014-0.017,0.031-0.032,0.051-0.044c0.442-0.389,0.897-0.751,1.365-1.084
		c0.016-0.016,0.036-0.03,0.056-0.04l0.067-0.047c0.011-0.009,0.022-0.018,0.035-0.024c0.065-0.045,0.131-0.09,0.197-0.135
		l-0.405-1.19c-0.229,0.177-0.454,0.357-0.676,0.541c-0.011,0.012-0.023,0.021-0.037,0.03c-7.931,6.586-11.321,17.275-20.095,23.152
		C25.836,42.779,25.951,42.963,26.058,43.148L26.058,43.148z M33.629,43.926c0.014,0.002,0.028,0.006,0.042,0.012
		c0.173,0.043,0.354,0.066,0.541,0.066c0.529,0,1.014-0.186,1.393-0.498c0.007-0.006,0.016-0.014,0.024-0.02
		c0.476-0.402,0.779-1.004,0.779-1.678c0-0.324-0.071-0.635-0.198-0.912c-0.009-0.016-0.018-0.031-0.023-0.049
		c-0.356-0.73-1.106-1.234-1.975-1.234c-0.109,0-0.217,0.01-0.322,0.023l-0.045,0.008c-0.401,0.068-0.765,0.244-1.06,0.496
		l-0.031,0.027c-0.453,0.402-0.738,0.988-0.738,1.641C32.015,42.82,32.699,43.672,33.629,43.926L33.629,43.926z M27.946,51.896
		c0.642-0.227,1.213-0.504,1.721-0.82c0.018-0.018,0.039-0.031,0.063-0.041c0.482-0.305,0.905-0.645,1.276-1.008
		c0.012-0.016,0.026-0.031,0.043-0.043c1.881-1.867,2.391-4.307,2.338-5.691c-0.433-0.143-0.816-0.396-1.116-0.727
		c0.227,2.443-0.555,5.391-4.11,7.166c-0.056,0.031-0.07,0.037-0.098,0.039c-0.022,0.002-0.068,0-0.126-0.02
		c-0.604-0.191-1.222-0.51-1.771-0.91c-0.069-0.049-0.069-0.051-0.13-0.1c-0.489-0.379-0.914-0.824-1.209-1.309
		c-0.036-0.057-0.033-0.051-0.055-0.092c-0.702-1.227-0.57-2.676,1.413-3.863c-0.098-0.316-0.226-0.617-0.377-0.908
		C21.762,46.334,23.365,49.762,27.946,51.896L27.946,51.896z M29.853,51.457c-0.412,0.254-0.864,0.482-1.358,0.682
		c2.422,1.021,5.539,1.648,8.877,1.594C35.404,52.969,31.745,51.816,29.853,51.457L29.853,51.457z M31.235,50.393
		c-0.27,0.258-0.565,0.504-0.888,0.736c2.356,0.514,6.539,1.887,8.011,2.562c0.9-0.051,1.813-0.152,2.733-0.311
		C38.573,52.525,33.49,50.938,31.235,50.393L31.235,50.393z M33.811,44.395c0.021,1.428-0.493,3.773-2.232,5.648
		c2.621,0.662,8.269,2.443,10.344,3.182c0.281-0.059,0.563-0.123,0.845-0.191c-0.36-1.66-0.326-4.092,0.498-6.719
		c-2.352-0.15-5.031-0.873-7.507-2.396c-0.433,0.318-0.968,0.508-1.547,0.508C34.075,44.426,33.941,44.414,33.811,44.395
		L33.811,44.395z M33.796,38.676c0.054,0.188,0.114,0.365,0.177,0.527c0.079-0.006,0.158-0.01,0.238-0.01
		c0.416,0,0.808,0.096,1.157,0.27C35.633,38.334,34.521,37.844,33.796,38.676L33.796,38.676z M35.304,36.568
		c1.874,0.453,2.515,2.861,1.333,4.26c0.123,0.303,0.19,0.635,0.19,0.98c0,0.707-0.281,1.35-0.736,1.82
		c3.669,2.215,7.768,2.637,10.477,2.064c2.833-0.598,3.849-2.111,2.062-3.754c-0.31-0.285,0.536-1.062,1.158-1.135
		c0.07-0.406-0.098-0.693-0.425-0.861c-0.882-0.082-2.292,0.381-3.225,0.592c-0.055,0.182-0.326,0.23-0.397,0.006
		c-0.097-0.303,0.155-0.768,0.221-0.91c0.128-0.273,0.476-0.092,0.354,0.15c-0.043,0.086-0.09,0.199-0.125,0.309
		c0.967-0.227,2.251-0.639,3.169-0.568c0.227-0.166,0.832-0.617,0.703-0.92c-0.036-0.082-0.103-0.182-0.211-0.326
		c-0.452-0.598-0.26-1.018,0.157-1.465c-0.719-0.092-1.633,0.002-2.117,0.541c-0.279,0.311-0.778-0.518-0.832-0.639
		c-0.2-0.457-0.167-1.064,0.53-1.711c0.206-0.191,0.492,0.119,0.286,0.309c-0.557,0.516-0.699,1.072-0.174,1.6l0.024,0.023
		c0.752-0.619,1.805-0.686,2.726-0.471l0.008,0.002h0.007c1.594-0.105,1.468-0.748,1.054-1.918
		c-0.163-0.461-0.384-0.998-0.618-1.611c-0.341-0.896-0.975-2.723-1.652-4.708c-1.816-0.713-4.399-0.295-6.384,0.587
		c-0.489,0.769-1.208,1.491-2.21,2.164c-0.487,2.712-2.708,4.771-5.286,5.093L35.304,36.568L35.304,36.568z M34.889,36.504
		l0.053-0.395c-0.16,0.008-0.322,0.01-0.484,0.004c-0.292,0.383-0.587,0.764-0.889,1.139c0.014,0.326,0.052,0.637,0.109,0.928
		c0.893-0.742,2.591-0.248,2.065,1.508c0.272,0.195,0.504,0.443,0.683,0.727c0.931-1.314,0.135-3.439-1.686-3.498
		c-0.28-0.008-0.267-0.43,0.013-0.42C34.798,36.496,34.844,36.5,34.889,36.504L34.889,36.504z M42.196,21.409
		c0,0.216-0.176,0.392-0.393,0.392c-0.217,0-0.393-0.176-0.393-0.392c0-0.217,0.176-0.394,0.393-0.394
		C42.021,21.016,42.196,21.192,42.196,21.409L42.196,21.409z M43.328,20.108c0,0.241-0.196,0.438-0.438,0.438
		s-0.438-0.196-0.438-0.438c0-0.242,0.196-0.439,0.438-0.439S43.328,19.866,43.328,20.108L43.328,20.108z M41.1,22.811
		c0,0.192-0.155,0.347-0.347,0.347c-0.192,0-0.347-0.155-0.347-0.347c0-0.191,0.155-0.347,0.347-0.347
		C40.945,22.464,41.1,22.619,41.1,22.811L41.1,22.811z M29.075,19.026c0,0.235-0.19,0.425-0.425,0.425
		c-0.234,0-0.424-0.19-0.424-0.425c0-0.234,0.19-0.424,0.424-0.424C28.885,18.602,29.075,18.792,29.075,19.026L29.075,19.026z
		 M34.211,42.566c0.418,0,0.757-0.34,0.757-0.758s-0.339-0.756-0.757-0.756c-0.417,0-0.757,0.338-0.757,0.756
		S33.793,42.566,34.211,42.566L34.211,42.566z M34.211,42.986c-0.65,0-1.178-0.527-1.178-1.178s0.527-1.178,1.178-1.178
		s1.178,0.527,1.178,1.178S34.861,42.986,34.211,42.986L34.211,42.986z M50.452,36.463c0.005,0,0.01,0,0.015,0.002H50.46
		L50.452,36.463L50.452,36.463z M44.235,31.727c-0.111-0.356-0.156-0.753-0.125-1.244c-0.641,0.194-1.245,0.482-1.762,0.889
		c0.194,0.064,0.473,0.145,0.819,0.215C43.474,31.648,43.833,31.701,44.235,31.727L44.235,31.727z M44.541,30.368
		c-0.053,0.593,0.006,1.012,0.146,1.376c0.269,0.002,0.552-0.008,0.848-0.036c-0.137-0.192-0.233-0.451-0.257-0.737
		c-0.024-0.278,0.021-0.542,0.116-0.75C45.107,30.253,44.822,30.303,44.541,30.368L44.541,30.368z M46.303,29.736
		c0.283-0.016,0.586-0.035,0.779,0.02c0.139,0.009,0.203,0.113,0.2,0.215c-0.004,0.253-0.329,0.386-0.582,0.469
		c0.041,0.121,0.069,0.253,0.081,0.392c0.05,0.593-0.199,1.125-0.578,1.21c-0.013,0.004-0.027,0.008-0.041,0.01
		c-0.466,0.076-1.008,0.115-1.567,0.105c-0.04,0.012-0.083,0.012-0.124-0.002c-0.87-0.025-1.771-0.167-2.483-0.46
		c-0.014,0.015-0.02,0.022-0.02,0.022c-0.18,0.216-0.503-0.053-0.323-0.27c0.004-0.005,0.048-0.058,0.134-0.14
		c0.012-0.015,0.026-0.028,0.042-0.039C42.286,30.834,43.69,29.771,46.303,29.736L46.303,29.736z"/>
	<path d="M61.351,13.795v0.746h2.374v7.331h0.892v-7.331h2.387v-0.746H61.351L61.351,13.795z M68.814,13.795v8.077h4.392v-0.746
		h-3.487v-3.064h3.158v-0.747h-3.158v-2.774h3.487v-0.746H68.814L68.814,13.795z M79.158,14.303c0.775,0,1.457,0.156,2.092,0.578
		l0.344-0.648c-0.76-0.396-1.51-0.614-2.436-0.614c-2.388,0-4.269,1.721-4.269,4.185c0,2.629,1.878,4.185,4.269,4.185
		c0.816,0,1.684-0.315,2.398-0.717l-0.32-0.576c-0.631,0.351-1.363,0.61-2.078,0.61c-1.962,0-3.347-1.562-3.347-3.502
		C75.811,15.865,77.196,14.303,79.158,14.303L79.158,14.303z M83.639,13.795v8.077h0.906l-0.002-3.87h4.404v3.87h0.898v-8.077
		h-0.898v3.474h-4.404l0.002-3.474H83.639L83.639,13.795z M93.664,13.609l-0.939,0.24v8.023h0.863l-0.004-6.934l4.75,7.112
		l0.953-0.263v-7.992h-0.84l-0.018,6.929L93.664,13.609L93.664,13.609z M102.559,13.795v8.077h0.898v-8.077H102.559L102.559,13.795z
		 M108.062,21.379c-0.629,0-1.273-0.273-1.721-0.569l-0.359,0.586c0.652,0.391,1.297,0.596,2.139,0.596
		c1.756,0,2.572-1.101,2.572-2.276c0-1.231-0.873-1.75-1.797-2.194l-0.678-0.325c-0.59-0.296-1.215-0.683-1.215-1.444
		c0-1.047,0.863-1.521,1.604-1.521c0.754,0,1.246,0.266,1.711,0.568l0.312-0.594c-0.625-0.362-1.311-0.587-2.07-0.587
		c-1.426,0-2.408,0.863-2.408,2.074c0,1.689,1.236,1.995,2.426,2.569c0.654,0.316,1.193,0.711,1.193,1.536
		C109.771,20.768,109.061,21.379,108.062,21.379L108.062,21.379z M116.932,14.303c0.775,0,1.459,0.156,2.094,0.578l0.344-0.648
		c-0.76-0.396-1.51-0.614-2.438-0.614c-2.387,0-4.268,1.721-4.268,4.185c0,2.629,1.879,4.185,4.268,4.185
		c0.818,0,1.686-0.315,2.4-0.717l-0.32-0.576c-0.631,0.351-1.363,0.61-2.08,0.61c-1.961,0-3.346-1.562-3.346-3.502
		C113.586,15.865,114.971,14.303,116.932,14.303L116.932,14.303z M121.682,13.795v8.077h0.904v-3.87h4.404v3.87h0.896v-8.077h-0.896
		v3.474h-4.404v-3.474H121.682L121.682,13.795z M130.766,13.795v8.077h4.4v-0.746h-3.488v-3.064h3.158v-0.746h-3.158v-2.774h3.488
		v-0.746H130.766L130.766,13.795z M68.558,32.457v-5.299h-0.904v5.168c0,1.811-0.874,2.383-2.269,2.383
		c-1.528,0-2.174-0.834-2.174-2.383v-5.168h-0.93l0.023,5.375c0,1.844,1.084,2.844,3.08,2.844
		C66.902,35.377,68.558,34.891,68.558,32.457L68.558,32.457z M72.053,26.979l-0.939,0.239v8.024h0.864l-0.004-6.934l4.749,7.112
		l0.952-0.262v-7.993h-0.839l-0.016,6.929L72.053,26.979L72.053,26.979z M80.51,27.158v8.084h0.904v-8.084H80.51L80.51,27.158z
		 M84.041,27.035l-0.879,0.277l3.086,7.931h0.893l3.104-7.919l-0.857-0.287l-2.67,7.249L84.041,27.035L84.041,27.035z
		 M91.988,27.158v8.084h4.391v-0.746h-3.486v-3.064h3.15v-0.747h-3.15v-2.78h3.486v-0.747H91.988L91.988,27.158z M100.482,31.101
		h-1.076v-3.243h1.301c1.393,0,1.809,0.681,1.809,1.612C102.516,30.756,101.51,31.101,100.482,31.101L100.482,31.101z
		 M100.936,27.166l-2.441-0.007v8.089h0.912v-3.48h0.74c0.596,0,0.904,0.219,1.256,0.65l0.348,0.443l1.896,2.584l0.789-0.471
		l-1.6-2.117c-0.312-0.391-0.742-1.145-1.26-1.269l0.01-0.167c1.113-0.15,1.764-0.796,1.764-2.099
		C103.35,28.007,102.459,27.166,100.936,27.166L100.936,27.166z M107.664,34.805c-0.629,0-1.271-0.273-1.719-0.57l-0.359,0.588
		c0.65,0.391,1.297,0.596,2.137,0.596c1.758,0,2.572-1.102,2.572-2.277c0-1.23-0.873-1.75-1.795-2.193l-0.68-0.325
		c-0.59-0.296-1.215-0.683-1.215-1.443c0-1.048,0.863-1.521,1.604-1.521c0.756,0,1.246,0.266,1.713,0.567l0.311-0.592
		c-0.623-0.362-1.311-0.588-2.07-0.588c-1.424,0-2.408,0.862-2.408,2.074c0,1.689,1.238,1.995,2.428,2.569
		c0.654,0.315,1.193,0.71,1.193,1.536C109.375,34.193,108.664,34.805,107.664,34.805L107.664,34.805z M112.721,27.158v8.084h0.904
		v-8.084H112.721L112.721,27.158z M115.391,27.158v0.747h2.375v7.337h0.891v-7.337h2.387v-0.747H115.391L115.391,27.158z
		 M125.137,27.973l1.488,3.998h-3.021L125.137,27.973L125.137,27.973z M128.811,35.145l-3.197-7.986h-0.947l-3.293,7.986
		l0.893,0.312l1.086-2.832h3.516l1.055,2.838L128.811,35.145L128.811,35.145z M127.469,26.646h-0.811v1.056h0.811V26.646
		L127.469,26.646z M123.643,27.702v-1.056h-0.805v1.056H123.643L123.643,27.702z M129.639,27.158v0.747h2.373v7.337h0.893v-7.337
		h2.387v-0.747H129.639L129.639,27.158z M64.393,47.906h-1.181v-6.678l1.365,0.004c2.242,0,3.711,1.148,3.711,3.283
		C68.289,46.635,66.792,47.906,64.393,47.906L64.393,47.906z M64.769,40.521L62.3,40.529v8.076h2.194
		c2.798,0,4.651-1.418,4.651-4.15C69.145,42.48,68.014,40.521,64.769,40.521L64.769,40.521z M74.159,41.336l1.487,3.998h-3.021
		L74.159,41.336L74.159,41.336z M77.831,48.508l-3.197-7.986h-0.947l-3.293,7.986l0.893,0.312l1.087-2.832h3.515l1.055,2.838
		L77.831,48.508L77.831,48.508z M81.969,44.465h-1.078v-3.242h1.303c1.393,0,1.809,0.68,1.809,1.611
		C84.002,44.119,82.996,44.465,81.969,44.465L81.969,44.465z M82.422,40.529l-2.441-0.008v8.092h0.91v-3.48h0.74
		c0.598,0,0.906,0.219,1.258,0.648l0.346,0.443l1.898,2.584l0.787-0.471l-1.598-2.117c-0.314-0.389-0.744-1.145-1.26-1.268
		l0.008-0.168c1.115-0.148,1.766-0.795,1.766-2.1C84.836,41.371,83.943,40.529,82.422,40.529L82.422,40.529z M90.902,40.529h-0.986
		l-2.26,7.988l0.869,0.234l1.904-7.016l2.049,6.869h1.014l2.084-6.885l1.877,7.029l0.857-0.23l-2.248-7.99H95.07l-2.086,7.039
		L90.902,40.529L90.902,40.529z M102.162,48.145c-0.629,0-1.271-0.273-1.719-0.568l-0.359,0.586c0.65,0.391,1.297,0.596,2.137,0.596
		c1.758,0,2.572-1.102,2.572-2.275c0-1.232-0.873-1.75-1.795-2.195l-0.68-0.324c-0.59-0.297-1.215-0.684-1.215-1.443
		c0-1.049,0.863-1.521,1.604-1.521c0.756,0,1.246,0.266,1.713,0.568l0.311-0.594c-0.623-0.361-1.311-0.588-2.07-0.588
		c-1.424,0-2.408,0.863-2.408,2.074c0,1.689,1.238,1.996,2.428,2.57c0.654,0.314,1.193,0.711,1.193,1.535
		C103.873,47.533,103.162,48.145,102.162,48.145L102.162,48.145z M106.297,40.529v0.744h2.375v7.332h0.891v-7.332h2.387v-0.744
		H106.297L106.297,40.529z M116.15,41.342l1.488,4h-3.021L116.15,41.342L116.15,41.342z M119.824,48.516l-3.197-7.986h-0.947
		l-3.293,7.986l0.893,0.312l1.088-2.832h3.514l1.055,2.836L119.824,48.516L119.824,48.516z M123.76,47.906h-1.184v-6.678
		l1.367,0.004c2.24,0,3.711,1.148,3.711,3.283C127.654,46.635,126.156,47.906,123.76,47.906L123.76,47.906z M124.135,40.521
		l-2.469,0.008v8.076h2.193c2.799,0,4.65-1.418,4.65-4.15C128.51,42.48,127.381,40.521,124.135,40.521L124.135,40.521z
		 M129.609,40.529v0.744h2.373v7.332h0.893v-7.332h2.387v-0.744H129.609L129.609,40.529z"/>
</g>
</svg>
