<?xml version="1.0" encoding="utf-8"?>
<!-- Generator: Adobe Illustrator 16.0.4, SVG Export Plug-In . SVG Version: 6.00 Build 0)  -->
<!DOCTYPE svg PUBLIC "-//W3C//DTD SVG 1.1//EN" "http://www.w3.org/Graphics/SVG/1.1/DTD/svg11.dtd">
<svg version="1.1" id="Ebene_1" xmlns:sketch="http://www.bohemiancoding.com/sketch/ns"
     xmlns="http://www.w3.org/2000/svg" xmlns:xlink="http://www.w3.org/1999/xlink" x="0px" y="0px" width="31px"
     height="31px" viewBox="-297.875 -301.641 626.766 634.688" enable-background="new -297.875 -301.641 626.766 634.688"
     xml:space="preserve">
<title>Artboard 1</title>
<description>Created with Sketch (http://www.bohemiancoding.com/sketch)</description>
<g id="Page-1" sketch:type="MSPage">
    <g id="Artboard-1" sketch:type="MSArtboardGroup">
        <g id="Sammlung-Icon" sketch:type="MSLayerGroup">
            <g id="Rectangle-23">
                <path sketch:type="MSShapeGroup" fill="#FFFFFF" d="M-144.109-290.516H298.25c10.781,0,19.5,8.734,19.5,19.5v450.938
                    c0,10.766-8.719,19.5-19.5,19.5h-442.359c-10.766,0-19.5-8.734-19.5-19.5v-450.938
                    C-163.609-281.781-154.875-290.516-144.109-290.516z"/>
                <path fill="#838383" d="M298.25,210.562h-442.359c-16.891,0-30.625-13.75-30.625-30.641v-450.938
                    c0-16.891,13.734-30.625,30.625-30.625H298.25c16.891,0,30.641,13.734,30.641,30.625v450.938
                    C328.891,196.812,315.141,210.562,298.25,210.562z M-144.109-279.391c-4.609,0-8.375,3.766-8.375,8.375v450.938
                    c0,4.609,3.766,8.359,8.375,8.359H298.25c4.609,0,8.359-3.75,8.359-8.359v-450.938c0-4.609-3.75-8.375-8.359-8.375H-144.109z"/>
            </g>
            <g id="Rectangle-23_1_">
                <path sketch:type="MSShapeGroup" fill="#FFFFFF" d="M-211.266-234.844h442.344c10.766,0,19.5,8.734,19.5,19.5v450.922
                    c0,10.766-8.734,19.5-19.5,19.5h-442.344c-10.781,0-19.5-8.734-19.5-19.5v-450.922
                    C-230.766-226.109-222.047-234.844-211.266-234.844z"/>
                <path fill="#838383" d="M231.078,266.219h-442.344c-16.906,0-30.641-13.75-30.641-30.641v-450.922
                    c0-16.891,13.734-30.625,30.641-30.625h442.344c16.891,0,30.641,13.734,30.641,30.625v450.922
                    C261.719,252.469,247.969,266.219,231.078,266.219z M-211.266-223.719c-4.609,0-8.375,3.766-8.375,8.375v450.922
                    c0,4.609,3.766,8.359,8.375,8.359h442.344c4.609,0,8.359-3.75,8.359-8.359v-450.922c0-4.609-3.75-8.375-8.359-8.375H-211.266z"
                    />
            </g>
            <g id="Rectangle-23_2_">
                <path sketch:type="MSShapeGroup" fill="#FFFFFF" d="M-267.25-168.031h442.375c10.75,0,19.5,8.734,19.5,19.5v450.938
                    c0,10.766-8.75,19.5-19.5,19.5H-267.25c-10.766,0-19.5-8.734-19.5-19.5v-450.938
                    C-286.75-159.297-278.016-168.031-267.25-168.031z"/>
                <path fill="#838383" d="M175.125,333.047H-267.25c-16.891,0-30.625-13.75-30.625-30.641v-450.938
                    c0-16.891,13.734-30.625,30.625-30.625h442.375c16.891,0,30.641,13.734,30.641,30.625v450.938
                    C205.766,319.297,192.016,333.047,175.125,333.047z M-267.25-156.906c-4.609,0-8.375,3.766-8.375,8.375v450.938
                    c0,4.609,3.766,8.359,8.375,8.359h442.375c4.594,0,8.359-3.75,8.359-8.359v-450.938c0-4.609-3.766-8.375-8.359-8.375H-267.25z"
                    />
            </g>
        </g>
    </g>
</g>
</svg>
